<?xml version="1.0" standalone="no"?>
<!DOCTYPE svg PUBLIC "-//W3C//DTD SVG 1.1//EN" "http://www.w3.org/Graphics/SVG/1.1/DTD/svg11.dtd" >
<svg xmlns="http://www.w3.org/2000/svg" xmlns:xlink="http://www.w3.org/1999/xlink" version="1.1">
<metadata></metadata>
<defs>
<font id="surfacemedium" horiz-adv-x="901" >
<font-face units-per-em="2048" ascent="1536" descent="-512" />
<missing-glyph horiz-adv-x="407" />
<glyph horiz-adv-x="0" />
<glyph horiz-adv-x="682" />
<glyph unicode=" "  horiz-adv-x="407" />
<glyph unicode="&#x09;" horiz-adv-x="407" />
<glyph unicode="&#xa0;" horiz-adv-x="407" />
<glyph unicode="!" horiz-adv-x="503" d="M360 94q0 -48 -32.5 -81t-83.5 -33q-53 0 -86 32t-33 82t33 82.5t86 32.5t84.5 -32.5t31.5 -82.5zM287 350h-84q-40 0 -46 5.5t-7 45.5l-19 662q-2 40 3.5 45.5t45.5 5.5h127q40 0 45.5 -5.5t3.5 -45.5l-16 -662q-1 -40 -7 -45.5t-46 -5.5z" />
<glyph unicode="&#x22;" horiz-adv-x="741" d="M205 696h-60q-39 0 -45 6t-6 46v290q0 40 6 46t45 6h105q39 0 44.5 -6t0.5 -46q-20 -160 -33 -290q-5 -40 -11 -46t-46 -6zM526 694h-59q-40 0 -45.5 5.5t-5.5 45.5v291q0 40 5.5 45.5t45.5 5.5h104q40 0 45 -5.5t0 -45.5q-14 -116 -32 -291q-4 -39 -11 -45t-47 -6z" />
<glyph unicode="#" horiz-adv-x="1394" d="M377 0h-109q-40 0 -44 5.5t5 43.5l41 160q8 31 5 35t-35 4h-88q-40 0 -44.5 5.5t1.5 45.5l8 55q6 40 12.5 46t46.5 6h105q33 0 38.5 4t12.5 34l20 91q8 31 5 34.5t-35 3.5h-101q-39 0 -44 6t1 46l6 53q6 39 13 45t47 6h118q33 0 39 4.5t13 34.5l35 137q9 38 16 43.5 t47 5.5h111q40 0 44 -5.5t-5 -43.5l-37 -137q-8 -31 -5 -35t35 -4h76q32 0 38 4t13 35l37 137q9 38 16.5 43.5t47.5 5.5h108q40 0 44 -5.5t-5 -43.5l-37 -137q-8 -31 -4.5 -35t35.5 -4h76q40 0 44.5 -5.5t-1.5 -45.5l-6 -53q-6 -40 -13 -46t-47 -6h-92q-33 0 -38.5 -4 t-12.5 -34l-21 -91q-8 -32 -4 -35q5 -3 35 -3h86q39 0 44 -6t-1 -46l-6 -55q-6 -40 -12.5 -45.5t-46.5 -5.5h-105q-32 0 -38 -4t-13 -35l-41 -160q-9 -38 -16 -43.5t-47 -5.5h-111q-40 0 -44 5.5t5 43.5l41 160q8 31 4.5 35t-35.5 4h-76q-32 0 -38 -4t-13 -35l-41 -160 q-9 -38 -16 -43.5t-47 -5.5zM561 539l-24 -99q-8 -31 -5 -35t35 -4h84q32 0 38 4t13 35l25 99q8 31 4.5 35t-35.5 4h-84q-32 0 -38 -4t-13 -35z" />
<glyph unicode="$" horiz-adv-x="753" d="M403 -145h-100q-40 0 -45.5 5.5t-3.5 45.5l2 114q2 32 -3 38t-36 10q-64 12 -100 24q-38 11 -42.5 17.5t-0.5 46.5l10 71q6 40 12 43.5t43 -10.5q119 -39 183 -39q143 0 143 94q0 36 -23 63.5t-60 45.5t-81.5 35.5t-89 40t-81.5 52t-60 78t-23 111.5q0 93 45.5 148 t126.5 88q31 10 35 16.5t2 38.5l-2 117q-2 40 3.5 45.5t45.5 5.5h100q40 0 45.5 -5.5t4.5 -45.5l-2 -109q0 -32 4.5 -37t36.5 -8l77 -12q40 -6 44.5 -12.5t-3.5 -44.5l-8 -49q-7 -40 -14 -44.5t-47 1.5q-98 10 -144 10q-64 0 -102.5 -28t-38.5 -66q0 -27 23.5 -48t61 -37 t82.5 -33t90 -40t82.5 -52.5t61 -77.5t23.5 -108q0 -96 -54 -164t-137 -104q-30 -12 -34 -18t-4 -39l4 -123q0 -39 -6 -45t-46 -6z" />
<glyph unicode="%" horiz-adv-x="1673" d="M739 674q0 -128 -75 -204.5t-199 -76.5t-202.5 76.5t-78.5 204.5q0 125 78.5 202.5t202.5 77.5q123 0 198.5 -77t75.5 -203zM358 676q0 -158 107 -158q102 0 102 158q0 151 -102 151q-107 0 -107 -151zM1468 133q0 -128 -76 -205.5t-202 -77.5q-124 0 -199.5 77.5 t-75.5 205.5q0 126 75.5 202.5t199.5 76.5q126 0 202 -76.5t76 -202.5zM1087 133q0 -158 107 -158q52 0 77 45t25 113q0 154 -102 154q-107 0 -107 -154zM475 -238h-108q-39 0 -42 5.5t17 37.5l758 1190q20 32 30 37.5t48 5.5h102q38 0 41.5 -5.5t-16.5 -37.5l-752 -1190 q-20 -32 -30 -37.5t-48 -5.5z" />
<glyph unicode="&#x26;" horiz-adv-x="1067" d="M1133 119l14 -43q11 -38 7 -46t-42 -20q-70 -22 -141 -22q-88 0 -205 94q-135 -94 -344 -94q-90 0 -166 31.5t-124.5 83t-75.5 114t-27 127.5q0 97 58 169.5t153 111.5q-90 133 -90 260q0 67 29.5 117.5t81 79.5t113.5 43t134 14q90 0 180 -19q38 -7 43 -14t0 -47l-4 -47 q-4 -40 -10.5 -44.5t-44.5 1.5q-62 10 -117 10q-195 0 -195 -133q0 -61 79.5 -157.5t312.5 -317.5q33 75 39 176q3 40 9 46.5t46 10.5l115 10q19 2 21.5 0t2.5 -20v-29q0 -189 -84 -334q91 -79 125 -79q16 0 43 6q38 8 46 3.5t18 -42.5zM256 344q0 -71 47.5 -127.5 t140.5 -56.5q109 0 185 51l-127 127q-93 90 -152 154q-94 -46 -94 -148z" />
<glyph unicode="'" horiz-adv-x="428" d="M207 696h-60q-39 0 -45 6t-6 46v290q0 40 6 46t45 6h105q39 0 44.5 -6t0.5 -46q-20 -160 -33 -290q-5 -40 -11 -46t-46 -6z" />
<glyph unicode="(" horiz-adv-x="720" d="M545 -256h-64q-36 0 -47.5 5t-38.5 30q-33 31 -67 70t-79 108.5t-78.5 145.5t-57 182t-23.5 217q0 113 24 221t57 184t78.5 146.5t78.5 109t67 70.5q27 24 38 28.5t46 4.5h66q38 0 41 -5t-19 -36q-27 -40 -54 -85.5t-64 -121.5t-64 -152t-46.5 -172.5t-19.5 -187.5 t17.5 -183t40 -159t62.5 -147.5t64.5 -122t65.5 -107.5q20 -32 17 -37.5t-41 -5.5z" />
<glyph unicode=")" horiz-adv-x="720" d="M219 -256h-74q-38 0 -41 5t19 36q37 54 72 114.5t80 157.5t72.5 215t27.5 234q0 111 -27.5 227.5t-72 214.5t-79.5 161.5t-71 115.5q-7 10 -10.5 14t-6.5 9.5t-4 7.5t0.5 5t3.5 3t8.5 1t11.5 1h17h74q35 0 46 -4.5t38 -28.5q33 -33 65.5 -71t77 -108t77 -146t56 -184 t23.5 -222q0 -112 -23.5 -218.5t-56 -182.5t-77 -145t-77 -107.5t-65.5 -69.5q-27 -25 -38 -30t-46 -5z" />
<glyph unicode="*" horiz-adv-x="718" d="M330 655l-70 -88q-26 -31 -34 -32t-42 22l-18 14q-33 23 -35 29q-3 9 17 40q1 2 2 3l61 105q16 27 14.5 33t-30.5 18l-109 43q-36 15 -40 23t7 46l4 9q10 38 18 42t46 -4l106 -24q32 -6 37 -2.5t8 35.5l13 123q4 40 10.5 45.5t46.5 5.5h29q40 0 46.5 -5.5t10.5 -45.5 l12 -123q3 -32 8 -35.5t37 2.5l111 24q38 8 45.5 4t17.5 -42l5 -9q11 -38 7 -46t-40 -23l-109 -43q-29 -12 -30.5 -18t14.5 -33l59 -103q22 -35 20 -43t-34 -31l-21 -14q-32 -23 -39.5 -22t-33.5 32l-74 88q-20 25 -26.5 25t-26.5 -25z" />
<glyph unicode="+" horiz-adv-x="942" d="M516 43h-84q-40 0 -45.5 5.5t-5.5 45.5v197q0 32 -4.5 36.5t-36.5 4.5h-164q-40 0 -45.5 5.5t-5.5 45.5v53q0 40 5.5 45.5t45.5 5.5h164q32 0 36.5 4.5t4.5 36.5v179q0 40 5.5 45.5t45.5 5.5h84q40 0 45.5 -5.5t5.5 -45.5v-179q0 -32 4.5 -36.5t36.5 -4.5h162 q40 0 45.5 -5.5t5.5 -45.5v-53q0 -40 -5.5 -45.5t-45.5 -5.5h-162q-32 0 -36.5 -4.5t-4.5 -36.5v-197q0 -40 -5.5 -45.5t-45.5 -5.5z" />
<glyph unicode="," horiz-adv-x="417" d="M317 88q0 -39 -9.5 -80t-30.5 -85t-63.5 -77t-100.5 -43q-17 -3 -20 -0.5t-3 21.5v2q0 17 3 20.5t20 8.5q37 13 62.5 49.5t25.5 66.5q0 29 -25 29q-35 0 -62.5 33.5t-27.5 72.5q0 47 32.5 81t78.5 34q49 0 84.5 -33.5t35.5 -99.5z" />
<glyph unicode="-" horiz-adv-x="624" d="M455 338h-277q-40 0 -45.5 5.5t-5.5 45.5v62q0 40 5.5 45.5t45.5 5.5h277q40 0 45.5 -5.5t5.5 -45.5v-62q0 -40 -5.5 -45.5t-45.5 -5.5z" />
<glyph unicode="." horiz-adv-x="417" d="M301 104q0 -47 -34.5 -80.5t-82.5 -33.5q-51 0 -84.5 33t-33.5 81t34 81.5t84 33.5q47 0 82 -34t35 -81z" />
<glyph unicode="/" horiz-adv-x="876" d="M221 -311h-115q-39 0 -42.5 5t10.5 42l504 1394q14 37 21.5 42.5t47.5 5.5h113q39 0 43 -6t-10 -44l-502 -1390q-13 -38 -21.5 -43.5t-48.5 -5.5z" />
<glyph unicode="0" horiz-adv-x="1073" d="M1001 446q0 -200 -109.5 -323t-279.5 -141q-46 -3 -98 0q-179 13 -292 132t-113 332q0 143 61 251.5t161.5 163t223.5 54.5q92 0 172 -29.5t141.5 -86.5t97 -147.5t35.5 -205.5zM322 446q0 -135 60 -213.5t173 -78.5q112 0 172.5 80.5t60.5 211.5q0 135 -60.5 215 t-172.5 80q-110 0 -171.5 -83t-61.5 -212z" />
<glyph unicode="1" horiz-adv-x="708" d="M580 0h-416q-40 0 -45.5 5.5t-5.5 45.5v31q0 40 5.5 46.5t45.5 10.5l78 8q32 3 36.5 8t4.5 38v440q0 32 -4.5 36t-36.5 -1l-45 -6q-40 -6 -47 -1t-13 44l-4 40q-6 40 -1.5 48t42.5 18l260 74q28 4 37 4h4q13 0 16 -2.5t3 -16.5v-677q0 -33 4.5 -38.5t36.5 -9.5l45 -6 q40 -4 45.5 -10.5t5.5 -46.5v-31q0 -40 -5.5 -45.5t-45.5 -5.5z" />
<glyph unicode="2" horiz-adv-x="813" d="M684 0h-541q-40 0 -45.5 5.5t-5.5 45.5v37q0 37 5.5 49.5t31.5 38.5q209 207 266 272q116 133 117 201q0 99 -129 99q-53 0 -137.5 -20.5t-91.5 -20.5q-14 0 -18.5 9.5t-4.5 39.5q-2 48 -2 71q0 12 41 31t107.5 35t125.5 16q58 0 109.5 -10.5t101.5 -35.5t79.5 -75 t29.5 -120q0 -25 -3 -47.5t-13.5 -47.5t-18.5 -43t-29.5 -47.5t-33.5 -46t-45 -53t-49 -54.5t-60 -64.5t-65 -69.5q-21 -21 -21 -27q0 -2 12 -2h21l266 6q39 0 45 -6t6 -45v-70q0 -40 -5.5 -45.5t-45.5 -5.5z" />
<glyph unicode="3" horiz-adv-x="829" d="M752 141q0 -64 -23.5 -120t-71 -102.5t-127.5 -73.5t-184 -27q-103 0 -217 28q-42 12 -47 20.5t4 49.5l6 35q8 38 15 43t45 -2q73 -15 145 -15q119 0 173 41.5t54 128.5q0 82 -59.5 120t-224.5 42q-40 0 -46 6t-6 45v39q0 41 6 46.5t46 7.5q149 6 207 46.5t53 121.5 q-4 78 -52.5 106.5t-136.5 28.5q-66 0 -123 -11q-40 -6 -46.5 -1t-12.5 44l-6 31q-7 38 -2.5 45.5t41.5 18.5q94 24 192 24q69 0 130 -14.5t112 -44t81 -81.5t30 -122q0 -155 -134 -225q-23 -12 -23 -16.5t25 -14.5q177 -71 177 -248z" />
<glyph unicode="4" horiz-adv-x="978" d="M684 -164h-100q-40 0 -46 6t-6 45v191q0 33 -4 37t-36 4h-353q-40 0 -45.5 5.5t-5.5 45.5v41q0 34 4.5 49.5t22.5 44.5l329 547q20 32 30 37.5t48 5.5h162q40 0 45.5 -5.5t5.5 -45.5v-518q0 -32 4.5 -36.5t36.5 -4.5h60q39 0 45 -6t6 -46v-63q0 -40 -5.5 -45.5 t-45.5 -5.5h-60q-32 0 -36.5 -4.5t-4.5 -36.5v-191q0 -40 -5.5 -45.5t-45.5 -5.5zM317 301v-4q0 -9 2 -10.5t11 -1.5h164q32 0 36.5 4.5t4.5 36.5l8 315q0 9 -2 10.5t-11 1.5h-4q-8 0 -10.5 -0.5t-4.5 -2.5t-5 -9l-182 -319q-7 -9 -7 -21z" />
<glyph unicode="5" horiz-adv-x="886" d="M805 170q0 -162 -113.5 -258t-318.5 -96q-125 0 -230 30q-38 10 -42.5 18t1.5 46l7 41q6 39 12.5 43.5t44.5 -4.5q90 -21 172 -21q231 0 231 185q0 57 -21.5 96t-62 58t-84 26.5t-100.5 7.5q-42 0 -100 -4q-40 -3 -45.5 2t-5.5 45v459q0 40 5.5 45.5t45.5 5.5h479 q40 0 45.5 -5.5t5.5 -45.5v-58q0 -40 -5.5 -45.5t-45.5 -5.5h-266q-32 0 -36.5 -4.5t-4.5 -36.5v-170q0 -26 3.5 -29.5t31.5 -0.5q12 2 38 2q168 0 263.5 -88.5t95.5 -237.5z" />
<glyph unicode="6" horiz-adv-x="944" d="M868 332q0 -71 -23 -133t-67.5 -111t-117.5 -77.5t-166 -28.5q-195 0 -291.5 129t-96.5 350q0 131 28.5 238t74.5 176t106 115.5t120.5 66.5t121.5 20q82 0 156 -24q39 -13 44.5 -22t0.5 -52q0 -2 -1 -5t-1 -5q-4 -39 -11 -44t-45 1q-54 8 -94 8q-53 0 -97.5 -16.5 t-81 -51t-59 -94.5t-26.5 -141q-3 -32 1.5 -35t33.5 8q81 35 184 35q129 0 218 -88t89 -219zM336 397q5 -127 39 -193.5t114 -66.5q77 0 115.5 52t38.5 126q0 69 -34 117.5t-97 48.5q-61 0 -137 -26q-30 -10 -34.5 -17.5t-4.5 -40.5z" />
<glyph unicode="7" horiz-adv-x="858" d="M266 -162l-129 6q-40 1 -42.5 6.5t14.5 40.5l385 789q6 10 6 27v4q0 9 -2 10.5t-11 1.5l-370 -6q-40 0 -45.5 5.5t-5.5 45.5v76q0 40 5.5 45.5t45.5 5.5h588q40 0 45.5 -5.5t5.5 -45.5v-29q0 -31 -4.5 -48t-18.5 -50l-393 -834q-17 -36 -25.5 -41.5t-48.5 -3.5z" />
<glyph unicode="8" horiz-adv-x="944" d="M864 272q0 -131 -110 -215t-279 -84q-161 0 -265 73.5t-104 193.5q0 88 42 154t122 120q25 15 25 20.5t-25 22.5q-151 101 -151 246q0 115 106.5 201t259.5 86q159 0 255 -73.5t96 -182.5q0 -143 -131 -236q-23 -19 -23 -23.5t23 -23.5q159 -118 159 -279zM330 264 q0 -62 39 -100.5t114 -38.5q70 0 106 34.5t36 88.5q0 87 -164 180q-28 17 -34 16t-28 -26q-69 -79 -69 -154zM346 819q0 -16 4.5 -30.5t18.5 -30t24 -25.5t38 -29t43.5 -28.5t55.5 -34.5q2 -2 5 -2h6q2 0 4 2q76 89 76 170q0 57 -36 93t-106 36q-72 0 -102.5 -34.5 t-30.5 -86.5z" />
<glyph unicode="9" horiz-adv-x="944" d="M866 424q0 -138 -30.5 -246.5t-77.5 -174.5t-110.5 -109t-123 -59.5t-121.5 -16.5q-81 0 -161 26q-39 12 -44.5 20t-0.5 50l4 16q4 38 10.5 43t44.5 0q62 -8 106 -8q245 0 259 299q3 31 -1 34t-32 -11q-78 -33 -174 -33q-56 0 -111 20t-102 56.5t-76 96.5t-29 132 q0 162 104.5 257t278.5 95q197 0 292 -128.5t95 -358.5zM328 578q0 -75 33.5 -118.5t103.5 -43.5q67 0 125 20q32 12 36.5 19t4.5 43q-3 131 -35.5 197.5t-112.5 66.5q-84 0 -119.5 -53t-35.5 -131z" />
<glyph unicode=":" horiz-adv-x="339" d="M295 104q0 -47 -35.5 -80.5t-81.5 -33.5q-51 0 -85 33t-34 81t34 81.5t85 33.5q46 0 81.5 -34t35.5 -81zM295 592q0 -47 -35.5 -81t-81.5 -34q-51 0 -85 33.5t-34 81.5t34 81.5t85 33.5q46 0 81.5 -34t35.5 -81z" />
<glyph unicode=";" horiz-adv-x="339" d="M297 88q0 -39 -9.5 -80t-31 -85t-64 -77t-100.5 -43q-17 -3 -19.5 -0.5t-2.5 21.5v2q0 18 2.5 21.5t19.5 7.5q37 13 62.5 49.5t25.5 66.5q0 29 -24 29q-35 0 -62.5 33.5t-27.5 72.5q0 47 32 81t78 34q49 0 85 -33.5t36 -99.5zM295 592q0 -47 -35.5 -81t-81.5 -34 q-51 0 -85 33.5t-34 81.5t34 81.5t85 33.5q46 0 81.5 -34t35.5 -81z" />
<glyph unicode="&#x3c;" horiz-adv-x="894" d="M782 92v-74q0 -40 -5 -42.5t-40 14.5l-633 313q-35 17 -40 25.5t-5 48.5v45q0 40 5.5 48.5t41.5 23.5l629 282q37 15 42 12t5 -43v-71q0 -40 -5.5 -48.5t-41.5 -23.5l-416 -184q-28 -12 -28 -16.5t28 -18.5l418 -217q34 -17 39.5 -26t5.5 -48z" />
<glyph unicode="=" horiz-adv-x="933" d="M770 102h-594q-39 0 -45 6t-6 46v63q0 40 5.5 45.5t45.5 5.5h594q40 0 45.5 -5.5t5.5 -45.5v-63q0 -40 -6 -46t-45 -6zM770 459h-594q-40 0 -45.5 5.5t-5.5 45.5v63q0 40 6 46t45 6h594q39 0 45 -6t6 -46v-63q0 -40 -5.5 -45.5t-45.5 -5.5z" />
<glyph unicode="&#x3e;" horiz-adv-x="894" d="M758 303l-633 -313q-35 -17 -40 -14.5t-5 42.5v74q0 40 5 48.5t40 25.5l420 213q28 13 28 18t-28 17l-418 188q-36 15 -41.5 23.5t-5.5 48.5v71q0 40 5 43t42 -12l629 -282q36 -15 41.5 -23.5t5.5 -48.5v-45q0 -40 -5 -48.5t-40 -25.5z" />
<glyph unicode="?" horiz-adv-x="720" d="M348 342h-108q-31 0 -37 4.5t-15 34.5q-8 28 -8 47q0 62 26 114.5t62.5 88.5t73 68t62.5 69t26 76q0 37 -13.5 62t-39.5 37t-53 16t-64 4q-30 0 -123 -15q-40 -6 -46.5 -1.5t-12.5 44.5l-4 29q-4 40 0 46.5t41 20.5q131 41 207 41q45 0 85 -5.5t88 -23t82 -46t57 -80 t23 -119.5q0 -61 -29.5 -112.5t-71 -88t-83 -71.5t-71 -79.5t-29.5 -94.5q0 -5 1 -17t1 -18q4 -25 1 -28t-28 -3zM412 98q0 -45 -35.5 -79.5t-81.5 -34.5q-50 0 -84.5 34t-34.5 80q0 48 34 81.5t85 33.5q46 0 81.5 -34t35.5 -81z" />
<glyph unicode="@" horiz-adv-x="1466" d="M686 -178q-8 -2 -31 -2q-168 0 -298.5 82.5t-199.5 223.5t-69 316q0 127 46 242.5t127.5 202.5t203 138.5t264.5 51.5q142 0 260 -45t198 -125t124.5 -190.5t44.5 -239.5q0 -201 -96 -313.5t-238 -112.5q-72 0 -122 27.5t-75 66.5q-15 23 -20.5 24.5t-28.5 -13.5 q-56 -39 -147 -39q-75 0 -134 56t-59 144q0 86 60.5 136.5t142.5 50.5q61 0 109 -10q32 -4 36 -0.5t4 34.5v50q0 90 -98 90q-47 0 -139 -27q-37 -10 -42.5 -6t-10.5 41l-2 4q-5 38 -1 45.5t37 22.5q118 53 205 53q60 0 110.5 -20t86 -70.5t35.5 -124.5v-297q0 -92 82 -92 q57 0 93 77.5t36 190.5q0 126 -51.5 229t-156 166.5t-245.5 63.5q-211 0 -338 -135.5t-127 -331.5q0 -89 21.5 -168t63.5 -144t113 -103t163 -38q29 0 43 2q29 3 33 -1t6 -34l8 -121q1 -22 -1 -24t-26 -4zM608 324q0 -34 23.5 -61t60.5 -27q36 0 60 6q32 4 36.5 9.5 t4.5 37.5v69q0 32 -4.5 37t-36.5 8q-9 0 -29.5 1.5t-30.5 1.5q-35 0 -59.5 -23.5t-24.5 -58.5z" />
<glyph unicode="A" horiz-adv-x="1114" d="M223 0h-131q-40 0 -43.5 5.5t8.5 43.5l365 1008q12 38 19.5 43.5t47.5 5.5h162q40 0 48 -5.5t20 -43.5l364 -1008q12 -39 8.5 -44t-42.5 -5h-134q-40 0 -47.5 5.5t-19.5 43.5l-70 199q-10 31 -16.5 35t-38.5 4h-309q-33 0 -39 -4.5t-15 -34.5l-69 -199q-12 -38 -20 -43.5 t-48 -5.5zM553 854l-119 -373q-9 -31 -6 -35t35 -4h211q32 0 34.5 4t-6.5 35l-116 373q-3 7 -5 8.5t-10 1.5h-4q-7 0 -9 -1t-5 -9z" />
<glyph unicode="B" horiz-adv-x="978" d="M918 311q0 -150 -110.5 -239.5t-291.5 -89.5q-138 0 -342 12q-40 3 -45.5 9t-5.5 46v1006q0 40 5.5 46t45.5 9q170 10 320 10q154 0 245.5 -77.5t91.5 -188.5q0 -153 -122 -244q-17 -13 -20 -17.5t1.5 -8t24.5 -11.5q203 -84 203 -262zM389 154q44 -7 92 -7 q102 0 153.5 43.5t51.5 126.5q0 164 -203 164q-40 0 -94 -4q-32 -1 -36.5 -6t-4.5 -37v-235q0 -32 4.5 -37t36.5 -8zM348 913v-243q0 -32 4.5 -36.5t36.5 -4.5h76q42 0 72.5 15t46.5 41t23 53.5t7 58.5q0 67 -36.5 114t-120.5 47q-52 0 -68 -2q-32 -1 -36.5 -6.5t-4.5 -36.5 z" />
<glyph unicode="C" horiz-adv-x="950" d="M809 33q-118 -51 -289 -51q-96 0 -175 28.5t-144.5 91.5t-102.5 175.5t-37 267.5q0 271 135.5 423t366.5 152q111 0 217 -26q38 -9 42.5 -15.5t-3.5 -44.5l-12 -57q-7 -39 -14.5 -44t-47.5 1q-73 12 -139 12q-100 0 -163 -36t-97.5 -125t-34.5 -238q0 -204 73 -294.5 t228 -90.5q67 0 172 28q38 11 45 6.5t11 -42.5l8 -52q4 -40 0 -47t-39 -22z" />
<glyph unicode="D" horiz-adv-x="1042" d="M981 559q0 -134 -30.5 -237.5t-79.5 -167t-119 -103.5t-141 -55.5t-152 -15.5q-120 0 -285 20q-40 4 -45.5 10.5t-5.5 46.5v1000q0 40 5.5 46t45.5 9q122 12 307 12q69 0 134 -14.5t133.5 -54t118.5 -100.5t82 -163t32 -233zM389 152q63 -5 105 -5q57 0 101 23.5t71 61.5 t44.5 92.5t24 109.5t6.5 119q0 61 -7.5 114.5t-28.5 108t-54.5 93t-89 63t-127.5 24.5q-31 0 -43 -2q-32 -2 -36.5 -6t-4.5 -35v-716q0 -31 4.5 -36.5t34.5 -8.5z" />
<glyph unicode="E" horiz-adv-x="874" d="M731 0h-557q-40 0 -45.5 5.5t-5.5 45.5v1004q0 40 5.5 45.5t45.5 5.5h549q40 0 45.5 -5.5t5.5 -45.5v-62q0 -40 -5.5 -45.5t-45.5 -5.5h-330q-32 0 -36.5 -4.5t-4.5 -36.5v-205q0 -32 4.5 -36.5t36.5 -4.5h287q40 0 45.5 -5.5t3.5 -45.5l-2 -53q-1 -40 -7 -45.5t-46 -5.5 h-281q-32 0 -36.5 -4.5t-4.5 -36.5v-252q0 -32 4.5 -36.5t36.5 -4.5h338q40 0 45.5 -5.5t5.5 -45.5v-64q0 -40 -5.5 -45.5t-45.5 -5.5z" />
<glyph unicode="F" horiz-adv-x="835" d="M301 0h-127q-40 0 -45.5 5.5t-5.5 45.5v1004q0 40 5.5 45.5t45.5 5.5h528q40 0 46 -6t6 -45v-62q0 -39 -6 -45t-46 -6h-313q-32 0 -36.5 -4.5t-4.5 -36.5v-242q0 -32 4.5 -36.5t36.5 -4.5h268q40 0 45.5 -5.5t4.5 -45.5l-2 -55q-1 -39 -7.5 -45t-46.5 -6h-258 q-32 0 -36.5 -4.5t-4.5 -36.5v-369q0 -40 -5.5 -45.5t-45.5 -5.5z" />
<glyph unicode="G" horiz-adv-x="1032" d="M889 8q-177 -26 -352 -26q-102 0 -187 33t-150.5 99.5t-102 176.5t-36.5 254q0 271 144.5 424t404.5 153q99 0 221 -24q38 -7 42 -14.5t-5 -45.5l-14 -57q-10 -38 -18 -42.5t-48 1.5q-71 8 -149 8q-166 0 -247 -96t-81 -313q0 -201 76.5 -291t237.5 -90q23 0 51 4 q32 3 36.5 8t4.5 37v162q0 32 -4.5 36.5t-36.5 4.5h-70q-40 0 -45.5 5.5t-5.5 45.5v51q0 40 5.5 45.5t45.5 5.5h283q40 0 45.5 -5.5t5.5 -45.5v-444q0 -40 -6 -47t-45 -13z" />
<glyph unicode="H" horiz-adv-x="1128" d="M299 0h-125q-40 0 -45.5 5.5t-5.5 45.5v1004q0 40 5.5 45.5t45.5 5.5h125q40 0 45.5 -5.5t5.5 -45.5v-350q0 -32 4.5 -36.5t36.5 -4.5h330q32 0 36.5 4.5t4.5 36.5v350q0 40 5.5 45.5t45.5 5.5h125q40 0 45.5 -5.5t5.5 -45.5v-1004q0 -40 -5.5 -45.5t-45.5 -5.5h-125 q-40 0 -45.5 5.5t-5.5 45.5v400q0 32 -4.5 36.5t-36.5 4.5h-330q-32 0 -36.5 -4.5t-4.5 -36.5v-400q0 -40 -5.5 -45.5t-45.5 -5.5z" />
<glyph unicode="I" horiz-adv-x="593" d="M451 0h-297q-40 0 -46 6t-6 45v33q0 32 4.5 37t36.5 8l2 2q32 3 36.5 8t4.5 37v750q0 32 -4 37.5t-35 9.5h-4q-32 4 -36.5 9t-4.5 36v37q0 39 6 45t46 6h297q40 0 45.5 -5.5t5.5 -45.5v-37q0 -32 -4.5 -37t-36.5 -8l-2 -2q-32 -3 -36.5 -8t-4.5 -37v-750q0 -31 4.5 -36 t36.5 -9h4q31 -4 35 -9.5t4 -37.5v-33q0 -40 -5.5 -45.5t-45.5 -5.5z" />
<glyph unicode="J" horiz-adv-x="647" d="M465 291q0 -88 -24 -153t-67 -101t-93.5 -53t-110.5 -17q-44 0 -111 13q-38 7 -42.5 14t3.5 45l9 31q5 24 8 26t26 -2q6 0 18 -1t17 -1q135 0 135 199v645q0 33 -4 37.5t-36 7.5l-5 2q-34 3 -38.5 8t-4.5 39v25q0 39 6 45t46 6h307q40 0 45.5 -5.5t5.5 -45.5v-25 q0 -34 -4.5 -39t-38.5 -8l-6 -2q-32 -3 -36.5 -8t-4.5 -37v-645z" />
<glyph unicode="K" horiz-adv-x="1026" d="M299 0h-125q-40 0 -45.5 5.5t-5.5 45.5v1004q0 40 5.5 45.5t45.5 5.5h125q40 0 45.5 -5.5t5.5 -45.5v-373q0 -25 3 -28t28 -3h4q22 0 27.5 3t17.5 22l248 387q20 32 30 37.5t48 5.5h141q39 0 42 -5.5t-19 -37.5l-293 -449q-17 -26 -17 -34.5t17 -34.5l338 -502 q9 -13 12.5 -18.5t5.5 -11.5t1 -7.5t-7.5 -3.5t-12.5 -2h-22h-168q-38 0 -48 5.5t-30 37.5l-262 408q-12 20 -17.5 23t-29.5 3h-4q-26 0 -29.5 -3t-3.5 -28v-395q0 -40 -5.5 -45.5t-45.5 -5.5z" />
<glyph unicode="L" horiz-adv-x="757" d="M639 0h-465q-40 0 -45.5 5.5t-5.5 45.5v1004q0 40 5.5 45.5t45.5 5.5h127q40 0 45.5 -5.5t5.5 -45.5v-838q0 -32 4.5 -36.5t36.5 -4.5q108 0 252 4q40 0 45.5 -5.5t3.5 -45.5l-2 -78q-1 -40 -7 -45.5t-46 -5.5z" />
<glyph unicode="M" horiz-adv-x="1480" d="M301 0h-127q-40 0 -45.5 5.5t-3.5 45.5l25 1004q1 40 7 45.5t46 5.5h297q40 0 47 -5.5t16 -43.5l172 -746q1 -7 3.5 -8.5t11.5 -1.5h4q8 0 9 1t3 9l174 746q9 38 16.5 43.5t47.5 5.5h288q40 0 46.5 -6t7.5 -45l24 -1004q2 -40 -3.5 -45.5t-45.5 -5.5h-129q-40 0 -46 5.5 t-7 45.5l-21 797q0 10 -2 12t-12 2h-4q-11 0 -13.5 -2t-5.5 -12l-188 -766q-9 -38 -16.5 -43.5t-47.5 -5.5h-161q-40 0 -47.5 5.5t-16.5 43.5l-194 770q-3 10 -5.5 12t-13.5 2h-4q-11 0 -12.5 -2t-1.5 -12l-19 -801q-1 -40 -7 -45.5t-46 -5.5z" />
<glyph unicode="N" horiz-adv-x="1144" d="M293 0h-119q-40 0 -45.5 5.5t-5.5 45.5v1004q0 40 5.5 45.5t45.5 5.5h184q40 0 48.5 -5.5t25.5 -41.5l338 -727q4 -8 6.5 -9t11.5 -1h5q9 0 10.5 1.5t1.5 10.5l-17 721q-1 40 4.5 45.5t45.5 5.5h123q40 0 45.5 -5.5t5.5 -45.5v-1004q0 -40 -5.5 -45.5t-45.5 -5.5h-189 q-40 0 -48.5 5.5t-25.5 41.5l-336 727q-4 9 -6.5 10.5t-11.5 1.5h-4q-11 0 -12.5 -1.5t-1.5 -10.5l16 -723q2 -40 -3.5 -45.5t-45.5 -5.5z" />
<glyph unicode="O" horiz-adv-x="1116" d="M1055 555q0 -257 -129.5 -415t-368.5 -158q-160 0 -273.5 74.5t-168 202.5t-54.5 296q0 167 55 294t168.5 201t272.5 74q238 0 368 -157t130 -412zM315 557q0 -87 10.5 -155t36.5 -128.5t75.5 -93.5t121.5 -33t121.5 33t75.5 93.5t36.5 128.5t10.5 155q0 404 -244 404 t-244 -404z" />
<glyph unicode="P" horiz-adv-x="923" d="M303 0h-129q-40 0 -45.5 5.5t-5.5 45.5v1006q0 40 5.5 46t45.5 9q264 8 313 8q172 0 278.5 -103t106.5 -257q0 -165 -110 -275t-275 -110q-52 0 -92 6q-32 3 -36.5 -1.5t-4.5 -35.5v-293q0 -40 -5.5 -45.5t-45.5 -5.5zM385 532q40 -4 72 -4q92 0 141 63.5t49 158.5 q0 90 -50 149t-142 59q-13 0 -38 -1t-34 -1q-31 -3 -35 -7.5t-4 -35.5v-338q0 -31 4.5 -35.5t36.5 -7.5z" />
<glyph unicode="Q" horiz-adv-x="1116" d="M879 -299h-177q-38 0 -47 5.5t-28 39.5l-113 201q-15 27 -23.5 33t-39.5 12q-188 36 -289 187t-101 376q0 255 130 412t368 157t370 -157t132 -412q0 -194 -78.5 -336t-226.5 -201q-30 -12 -31.5 -17.5t16.5 -31.5l160 -227q22 -31 19 -36t-41 -5zM317 557 q0 -72 4.5 -126t19 -112t40.5 -95t71.5 -61t108.5 -24t109 24t71.5 60.5t40.5 95t19 112t4 126.5q0 72 -4 125t-19 110.5t-40.5 93.5t-71.5 59.5t-109 23.5t-108.5 -23.5t-71.5 -60t-40.5 -93.5t-19 -110t-4.5 -125z" />
<glyph unicode="R" horiz-adv-x="972" d="M303 0h-129q-40 0 -45.5 5.5t-5.5 45.5v1004q0 40 5.5 46t45.5 9q170 10 326 10q174 0 273 -96t99 -240q0 -99 -52 -172.5t-132 -117.5q-26 -13 -27.5 -19.5t13.5 -32.5q79 -125 246 -399q20 -32 17 -37.5t-42 -5.5h-158q-38 0 -47 5.5t-28 39.5l-195 365 q-15 27 -22.5 31.5t-38.5 4.5l-11 -2q-32 0 -36.5 -4.5t-4.5 -36.5v-352q0 -40 -5.5 -45.5t-45.5 -5.5zM381 588q11 0 38 -1t44 -1q88 0 136 51t48 133q0 87 -45.5 137.5t-144.5 50.5q-12 0 -36.5 -1t-35.5 -1q-32 -3 -36.5 -8t-4.5 -37v-282q0 -29 4 -33.5t33 -7.5z" />
<glyph unicode="S" horiz-adv-x="829" d="M768 338q0 -176 -116.5 -267t-301.5 -91q-125 0 -219 28q-38 9 -43.5 16.5t-3.5 47.5l4 73q2 39 7.5 43t43.5 -6q122 -26 178 -26q224 0 224 139q0 38 -27 70t-70 56t-95.5 48t-105 53.5t-95.5 65.5t-70 91t-27 122q0 85 32.5 149t89.5 100.5t125 54t148 17.5 q97 0 185 -18q41 -7 46.5 -14.5t0.5 -49.5l-6 -47q-5 -38 -11.5 -43.5t-46.5 0.5q-80 13 -147 13q-91 0 -142 -29.5t-51 -89.5q0 -37 27 -67.5t71 -54t96.5 -47.5t105 -54t96.5 -66.5t71 -92t27 -124.5z" />
<glyph unicode="T" horiz-adv-x="925" d="M512 0h-135q-40 0 -45.5 5.5t-5.5 45.5v848q0 32 -4.5 36.5t-36.5 4.5h-183q-40 0 -45.5 5.5t-3.5 45.5l2 64q1 39 7.5 45t46.5 6h700q40 0 45.5 -5.5t3.5 -45.5l-2 -64q-1 -40 -7 -45.5t-46 -5.5h-199q-32 0 -36.5 -4.5t-4.5 -36.5v-848q0 -40 -5.5 -45.5t-45.5 -5.5z " />
<glyph unicode="U" horiz-adv-x="1093" d="M981 377q0 -107 -31.5 -185.5t-91 -125t-137 -69t-176.5 -22.5q-98 0 -175 22.5t-135.5 69t-90 125t-31.5 185.5v678q0 40 5.5 45.5t45.5 5.5h129q40 0 45.5 -5.5t5.5 -45.5v-672q0 -240 201 -240q205 0 205 240v672q0 40 5.5 45.5t45.5 5.5h129q40 0 45.5 -5.5 t5.5 -45.5v-678z" />
<glyph unicode="V" horiz-adv-x="1093" d="M639 0h-168q-40 0 -48 5.5t-20 43.5l-346 1008q-12 38 -8.5 43.5t43.5 5.5h146q40 0 47.5 -5.5t19.5 -43.5l240 -750q4 -14 6 -18.5t4 -9.5t4 0t4 9.5t6 18.5l244 750q12 38 20 43.5t48 5.5h131q40 0 43.5 -5.5t-8.5 -43.5l-340 -1008q-12 -38 -20 -43.5t-48 -5.5z" />
<glyph unicode="W" horiz-adv-x="1675" d="M588 0h-213q-40 0 -47.5 5.5t-16.5 43.5l-248 1008q-9 38 -5 43.5t44 5.5h146q40 0 47 -5.5t16 -43.5l178 -750q6 -28 9.5 -28t9.5 28l178 719q9 38 16.5 43.5t47.5 5.5h194q40 0 47.5 -5.5t14.5 -43.5l161 -717q6 -29 9.5 -29.5t9.5 27.5l178 750q9 38 16 43.5t47 5.5 h146q40 0 44 -5.5t-7 -43.5q-29 -114 -124 -507t-122 -501q-9 -38 -16.5 -43.5t-47.5 -5.5h-213q-40 0 -47 5.5t-16 43.5l-176 766q-6 28 -9 28t-10 -28l-178 -766q-9 -38 -16 -43.5t-47 -5.5z" />
<glyph unicode="X" horiz-adv-x="1132" d="M236 0h-164h-22t-12.5 2t-7.5 3.5t1 7.5t5.5 11.5t12.5 18.5l322 485q17 26 17 35t-17 35l-305 465q-22 32 -19 37.5t41 5.5h168q38 0 48 -5.5t32 -37.5l164 -256q13 -20 17.5 -23.5t9.5 0t18 23.5l157 256q20 32 30 37.5t48 5.5h176h22t12.5 -2t7.5 -3.5t-1 -7.5 t-5.5 -11.5t-12.5 -18.5l-291 -438q-17 -26 -17 -35t17 -35l348 -510q22 -32 19 -37.5t-41 -5.5h-166q-38 0 -48 5.5t-32 37.5l-211 305q-10 16 -13.5 20.5t-9 4.5t-9 -4.5t-13.5 -20.5l-197 -307q-22 -32 -31.5 -37.5t-47.5 -5.5z" />
<glyph unicode="Y" horiz-adv-x="983" d="M557 0h-133q-40 0 -45.5 5.5t-5.5 45.5v301q0 39 -19 78l-321 631q-17 35 -14.5 40t42.5 5h148q40 0 48.5 -5.5t23.5 -41.5l192 -426q3 -8 5 -9t11 -1h5q9 0 11 1t5 9l195 426q15 37 23 42t48 5h146q40 0 42.5 -5t-14.5 -40l-323 -631q-19 -39 -19 -78v-301 q0 -40 -5.5 -45.5t-45.5 -5.5z" />
<glyph unicode="Z" horiz-adv-x="942" d="M823 0h-710q-40 0 -46 6t-6 45v31q0 36 4.5 50.5t24.5 43.5l483 737q7 9 7 19v4q0 7 -1.5 8.5t-9.5 1.5h-428q-40 0 -45.5 5.5t-3.5 45.5v58q1 40 7 45.5t46 5.5h684q40 0 46 -6t6 -45v-29q0 -36 -4.5 -50.5t-24.5 -43.5l-483 -735q-7 -9 -7 -19v-4q0 -7 1.5 -8.5 t9.5 -1.5h450q40 0 45.5 -5.5t5.5 -45.5v-62q0 -40 -5.5 -45.5t-45.5 -5.5z" />
<glyph unicode="[" horiz-adv-x="626" d="M434 -262h-289q-40 0 -45.5 5.5t-5.5 45.5v1452q0 40 5.5 45.5t45.5 5.5h289q40 0 45.5 -5.5t5.5 -45.5v-39q0 -40 -5.5 -45.5t-45.5 -5.5h-82q-32 0 -36.5 -4.5t-4.5 -36.5v-1192q0 -32 4.5 -36.5t36.5 -4.5h82q40 0 45.5 -5.5t5.5 -45.5v-37q0 -40 -5.5 -45.5 t-45.5 -5.5z" />
<glyph unicode="\" horiz-adv-x="876" d="M760 -313h-123q-40 0 -48.5 5.5t-21.5 41.5q-31 86 -238 657t-266 737q-14 38 -10 44t43 6h125q40 0 48.5 -5.5t21.5 -42.5l504 -1394q12 -38 8.5 -43.5t-43.5 -5.5z" />
<glyph unicode="]" horiz-adv-x="626" d="M467 -262h-291q-40 0 -45.5 5.5t-5.5 45.5v37q0 40 5.5 45.5t45.5 5.5h84q32 0 36.5 4.5t4.5 36.5v1194q0 32 -4.5 36.5t-36.5 4.5h-84q-40 0 -45.5 5.5t-5.5 45.5v37q0 40 5.5 45.5t45.5 5.5h291q40 0 45.5 -5.5t5.5 -45.5v-1452q0 -40 -5.5 -45.5t-45.5 -5.5z" />
<glyph unicode="^" d="M188 403h-100q-39 0 -42.5 6t15.5 40l250 432q19 34 28.5 39.5t47.5 5.5h121q39 0 48 -5.5t26 -39.5l225 -432q17 -35 14 -40.5t-43 -5.5h-100q-40 0 -48.5 5.5t-25.5 40.5l-145 292q-13 28 -17.5 28t-19.5 -28l-158 -292q-19 -34 -28.5 -40t-47.5 -6z" />
<glyph unicode="_" horiz-adv-x="933" d="M770 -199h-594q-39 0 -45 6t-6 46v57q0 40 5.5 45.5t45.5 5.5h594q40 0 45.5 -5.5t5.5 -45.5v-57q0 -40 -6 -46t-45 -6z" />
<glyph unicode="`" horiz-adv-x="884" d="M465 907h-49q-38 0 -48 5.5t-30 37.5l-90 148q-20 32 -17 37.5t41 5.5h105q40 0 48 -5t21 -42l52 -140q14 -37 10.5 -42t-43.5 -5z" />
<glyph unicode="a" horiz-adv-x="860" d="M471 39q-87 -59 -195 -59q-102 0 -163.5 65.5t-61.5 173.5q0 64 26 111.5t71 73.5t96.5 38.5t111.5 12.5q43 0 95 -9q30 -5 33 -1t3 32v82q0 117 -151 117q-67 0 -172 -39q-37 -14 -43 -10.5t-12 41.5l-5 34q-6 38 -1.5 46.5t40.5 21.5q127 53 258 53q123 0 215.5 -64 t92.5 -179v-430q0 -29 3.5 -32.5t32.5 -0.5l5 2q29 3 34 -0.5t11 -32.5l4 -14q8 -34 4.5 -41.5t-35.5 -20.5q-75 -30 -139 -30q-68 0 -105 51q-19 22 -23.5 22.5t-29.5 -14.5zM264 219q0 -45 29 -68.5t78 -23.5q34 0 80 16q28 9 32 15.5t4 38.5v102q0 31 -4.5 35.5 t-36.5 3.5q-182 -9 -182 -119z" />
<glyph unicode="b" horiz-adv-x="944" d="M868 434q0 -123 -36.5 -214t-100 -142.5t-139 -76t-164.5 -24.5q-134 0 -254 21q-40 6 -45.5 12.5t-5.5 46.5q0 64 1 491t1 630q0 40 5.5 45.5t45.5 5.5h121q40 0 45.5 -5.5t5.5 -45.5v-355q0 -31 4 -33.5t35 7.5q76 26 143 26q59 0 115.5 -20.5t108 -63.5t83 -121.5 t31.5 -183.5zM379 133q40 -8 88 -8q85 0 129.5 81t44.5 210q0 117 -49.5 190.5t-128.5 73.5q-40 0 -80 -8q-31 -6 -35 -11t-4 -36v-451q0 -28 3.5 -32.5t31.5 -8.5z" />
<glyph unicode="c" horiz-adv-x="739" d="M635 23q-101 -34 -189 -39q-50 0 -75 4q-131 18 -211 119t-80 284q0 215 105 322.5t290 107.5q43 0 137 -12q40 -8 44 -13.5t-3 -45.5l-8 -39q-7 -40 -14 -44.5t-47 1.5q-41 6 -76 6q-105 0 -156 -61t-51 -210q0 -270 203 -270q55 0 117 12q38 8 44 3.5t9 -42.5 q2 -6 2 -18q3 -39 -1.5 -46t-39.5 -19z" />
<glyph unicode="d" horiz-adv-x="929" d="M555 29q-79 -52 -197 -52q-134 0 -215.5 106t-81.5 325q0 107 32 190t83.5 130.5t109 71t115.5 23.5q76 0 142 -24q31 -11 35 -8.5t4 34.5v353q0 40 5.5 45.5t45.5 5.5h117q40 0 45.5 -5.5t5.5 -45.5v-1117q0 -40 -5.5 -46.5t-45.5 -10.5l-68 -8q-29 -5 -37.5 -2 t-28.5 26q-21 24 -27 25t-34 -16zM293 397q1 -77 15.5 -135.5t49 -97.5t86.5 -39q55 0 101 16q30 9 34.5 15t4.5 37v425q0 31 -4.5 37t-34.5 13q-40 8 -92 8q-81 0 -120.5 -78.5t-39.5 -200.5z" />
<glyph unicode="e" horiz-adv-x="843" d="M686 29q-119 -47 -268 -49q-153 -2 -255 111.5t-102 311.5q0 199 101.5 309.5t265.5 110.5q163 0 253.5 -93.5t90.5 -274.5q0 -8 -1 -23.5t-1 -23.5q-3 -17 -8 -23l-2 -4q-4 -9 -7 -10.5t-12 -1.5h-411q-32 0 -36 -4.5t-1 -36.5q15 -193 188 -193q83 0 187 31 q38 11 44.5 7t10.5 -44l4 -33q5 -38 0 -46t-41 -21zM434 690q-28 0 -47.5 -5t-41 -21t-33.5 -52t-15 -92q-3 -32 1.5 -36.5t35.5 -2.5l176 6q32 1 36 6t1 37q-6 81 -35.5 120.5t-77.5 39.5z" />
<glyph unicode="f" horiz-adv-x="622" d="M356 0h-118q-40 0 -46 6t-6 45v572q0 32 -4.5 36.5t-36.5 4.5h-45q-34 0 -38.5 4.5t-4.5 38.5v4q0 32 4 38.5t35 16.5l43 16q30 10 34.5 16.5t2.5 39.5q-12 144 -12 194q0 76 43 135t102.5 87t120.5 28q76 0 164 -18q38 -9 42.5 -16.5t-7.5 -45.5l-6 -18 q-11 -38 -18.5 -43.5t-47.5 0.5q-36 4 -57 4q-71 0 -96 -40.5t-25 -111.5q0 -63 14 -159q4 -32 9.5 -36.5t37.5 -4.5h78q39 0 45 -6t6 -46v-26q0 -40 -5.5 -45.5t-45.5 -5.5h-69q-32 0 -36.5 -4.5t-4.5 -36.5v-572q0 -39 -6 -45t-46 -6z" />
<glyph unicode="g" horiz-adv-x="851" d="M799 -78q0 -155 -108 -234t-279 -79q-167 0 -269 61t-102 176q0 111 121 162q15 6 20.5 8.5t6.5 7t-3 8.5t-16 15q-45 52 -45 111q0 62 63 112q23 19 23 23.5t-25 19.5q-54 35 -85 98t-31 138q0 126 88 200t235 74q113 0 197 -41q27 -12 35 -11.5t32 17.5q53 33 97 48 q38 13 43.5 9t5.5 -44v-68q0 -40 -5.5 -46t-45.5 -7l-17 -2q-31 -2 -34 -6t6 -35q14 -41 14 -88q0 -121 -86.5 -195.5t-259.5 -74.5q-74 0 -74 -52q0 -30 37 -45.5t92 -19t120 -15t120 -30.5t92 -68.5t37 -126.5zM240 -117q0 -56 48.5 -90.5t123.5 -34.5q78 0 126.5 29 t47.5 92q-1 30 -17.5 50.5t-53 32t-74 17.5t-99.5 11q-26 2 -34 -1t-27 -20q-41 -37 -41 -86zM276 551q3 -141 117 -141q59 0 89 38.5t30 102.5q0 66 -29 104.5t-90 38.5q-60 0 -88.5 -38.5t-28.5 -104.5z" />
<glyph unicode="h" horiz-adv-x="950" d="M295 0h-121q-40 0 -45.5 5.5t-5.5 45.5v1127q0 40 5.5 45.5t45.5 5.5h119q40 0 45.5 -5.5t5.5 -45.5v-375q0 -33 6 -33q3 0 33 13t78 26.5t96 13.5q34 0 67 -7t71 -27.5t66 -53.5t47 -91t19 -134v-459q0 -40 -5.5 -45.5t-45.5 -5.5h-119q-40 0 -45.5 5.5t-5.5 45.5v459 q0 91 -34.5 130.5t-100.5 39.5q-67 0 -96 -15t-29 -49v-565q0 -40 -5.5 -45.5t-45.5 -5.5z" />
<glyph unicode="i" horiz-adv-x="536" d="M387 1042q0 -51 -37 -86.5t-88 -35.5q-55 0 -92 35.5t-37 86.5q0 53 37 88t92 35q52 0 88.5 -35.5t36.5 -87.5zM330 0h-111q-40 0 -45.5 5.5t-5.5 45.5v551q0 32 -4.5 37.5t-36.5 11.5l-8 2q-36 7 -41.5 14t-5.5 44v14q0 40 5.5 46t45.5 9l207 15q40 3 45.5 -2t5.5 -45 v-697q0 -40 -5.5 -45.5t-45.5 -5.5z" />
<glyph unicode="j" horiz-adv-x="530" d="M383 -47q0 -90 -28 -158.5t-75 -107t-100.5 -57.5t-111.5 -19q-53 0 -111 16q-38 11 -42.5 18.5t5.5 45.5l4 18q9 38 16.5 42.5t45.5 -1.5q30 -6 63 -6q24 0 42.5 4.5t32 17.5t23 24.5t15.5 37t9.5 43t4.5 54t1.5 58.5t0.5 68v541q0 32 -4.5 37.5t-36.5 11.5l-12 2 q-39 7 -45 14.5t-6 47.5v10q0 40 5.5 46t45.5 9l207 14q40 3 45.5 -2t5.5 -45v-784zM383 1042q0 -51 -37 -86.5t-90 -35.5q-54 0 -90.5 35.5t-36.5 86.5q0 52 36.5 87.5t90.5 35.5q53 0 90 -35.5t37 -87.5z" />
<glyph unicode="k" horiz-adv-x="892" d="M295 0h-121q-40 0 -45.5 5.5t-5.5 45.5v1127q0 40 5.5 45.5t45.5 5.5h121q40 0 45.5 -5.5t5.5 -45.5v-639q0 -17 3 -20t20 -3h4q15 0 19.5 2.5t13.5 16.5l165 233q23 31 33.5 36t48.5 5h127q38 0 41 -5t-20 -36l-199 -279q-19 -26 -19 -32.5t17 -34.5l250 -379 q22 -32 19 -37.5t-42 -5.5h-147q-38 0 -48 5.5t-30 37.5l-186 301q-10 17 -15 20t-24 3h-4q-22 0 -24.5 -2.5t-2.5 -22.5v-291q0 -40 -5.5 -45.5t-45.5 -5.5z" />
<glyph unicode="l" horiz-adv-x="493" d="M299 0h-125q-40 0 -45.5 5.5t-5.5 45.5v1118q0 40 6 46.5t45 9.5l125 12q40 3 45.5 -2t5.5 -45v-1139q0 -40 -5.5 -45.5t-45.5 -5.5z" />
<glyph unicode="m" horiz-adv-x="1394" d="M297 0h-123q-40 0 -45.5 5.5t-5.5 45.5v705q0 40 5.5 46.5t45.5 10.5l59 6q30 3 39.5 0t30.5 -26l4 -2q22 -23 29 -24.5t35 13.5q88 43 147 43q127 0 207 -47q24 -17 32 -17.5t34 13.5q90 51 204 51q27 0 44 -0.5t48.5 -6t52 -15t46 -29.5t40.5 -47.5t25.5 -71 t10.5 -98.5v-504q0 -39 -6 -45t-46 -6h-123q-40 0 -45.5 5.5t-5.5 45.5v504q0 36 -9.5 61.5t-20.5 37.5t-31.5 18.5t-31.5 7t-32 0.5q-27 0 -67 -12q-30 -9 -34.5 -15.5t-4.5 -38.5v-563q0 -40 -5.5 -45.5t-45.5 -5.5h-121q-40 0 -45.5 5.5t-5.5 45.5v504q0 43 -11 70 t-32 38t-38 14t-44 3q-30 0 -70 -12q-30 -9 -34.5 -15t-4.5 -39v-563q0 -40 -5.5 -45.5t-45.5 -5.5z" />
<glyph unicode="n" horiz-adv-x="962" d="M297 0h-123q-40 0 -45.5 5.5t-5.5 45.5v705q0 40 5.5 46.5t45.5 10.5l59 6q30 3 39.5 0t32.5 -24l2 -2q23 -23 31 -24.5t37 11.5q107 43 196 43q118 0 193.5 -66.5t75.5 -213.5v-492q0 -39 -6 -45t-46 -6h-122q-40 0 -46 6t-6 45v481q0 87 -30 117.5t-99 30.5 q-52 0 -98 -12q-30 -9 -34.5 -15t-4.5 -37v-565q0 -40 -5.5 -45.5t-45.5 -5.5z" />
<glyph unicode="o" horiz-adv-x="919" d="M850 403q0 -186 -107.5 -303.5t-287.5 -117.5q-179 0 -286.5 117.5t-107.5 303.5q0 185 108 302.5t286 117.5q179 0 287 -117.5t108 -302.5zM291 403q0 -282 164 -282q50 0 83.5 23.5t49.5 66.5t22 88t6 104q0 60 -5.5 104.5t-21.5 87.5t-49.5 66t-84.5 23q-50 0 -84 -23 t-50.5 -65.5t-23 -88t-6.5 -104.5z" />
<glyph unicode="p" horiz-adv-x="940" d="M295 -379h-121q-40 0 -45.5 5.5t-5.5 45.5v1084q0 40 5.5 46.5t45.5 10.5l55 6q32 3 42 0t34 -24l2 -2q24 -23 32.5 -24t37.5 13q80 41 168 41q37 0 77.5 -10.5t86 -38t81 -69.5t59 -112.5t23.5 -158.5q0 -218 -106 -326t-287 -108q-44 0 -94 8q-31 5 -35 1.5t-4 -34.5 v-303q0 -40 -5.5 -45.5t-45.5 -5.5zM383 147q36 -4 68 -4q93 0 137.5 79t44.5 200q0 111 -39.5 182.5t-108.5 71.5q-56 0 -106 -12q-29 -7 -33 -12.5t-4 -35.5v-423q0 -31 4.5 -36.5t36.5 -9.5z" />
<glyph unicode="q" horiz-adv-x="935" d="M758 -383l-123 -12q-40 -3 -45.5 2t-5.5 45v315q0 31 -4.5 35t-36.5 -2q-113 -20 -195 -20q-36 0 -73.5 13t-76.5 44.5t-69 77.5t-49 118.5t-19 161.5q0 107 32.5 193t82.5 135t104 74.5t105 25.5q121 0 373 -12q40 -3 45.5 -9t5.5 -46v-1084q0 -40 -5.5 -46t-45.5 -9z M299 416q0 -291 154 -291q52 0 98 12q29 9 33 14.5t4 34.5v447q0 31 -4.5 35.5t-36.5 7.5q-36 4 -64 4q-98 0 -141 -73t-43 -191z" />
<glyph unicode="r" horiz-adv-x="634" d="M295 0h-121q-40 0 -45.5 5.5t-5.5 45.5v705q0 40 5.5 46.5t45.5 10.5l47 4q38 5 48.5 1t31.5 -36l10 -16q12 -16 15 -20.5t10.5 -6t11.5 2.5t19 16q80 56 145 73q40 9 44.5 5t0.5 -43l-12 -95q-4 -41 -11 -47.5t-47 -11.5q-31 -3 -102 -18q-30 -7 -34.5 -13t-4.5 -39 v-518q0 -40 -5.5 -45.5t-45.5 -5.5z" />
<glyph unicode="s" horiz-adv-x="729" d="M657 233q0 -81 -48.5 -140t-118.5 -85.5t-148 -25.5q-110 2 -201 28q-38 9 -43 16.5t-2 47.5l2 45q3 39 9.5 43.5t44.5 -6.5q113 -29 157 -31q65 0 99 18t34 66q0 27 -20.5 48.5t-53 37t-72 31.5t-79 37t-72 48t-53 70t-20.5 97q0 115 90 178t219 63q69 0 164 -22 q38 -9 42.5 -15.5t-1.5 -46.5l-4 -28q-6 -38 -13 -43t-45 2q-86 14 -129 14q-123 0 -123 -80q0 -24 21 -44t55 -35.5t75 -32t82.5 -38.5t75.5 -49.5t55 -70.5t21 -97z" />
<glyph unicode="t" horiz-adv-x="643" d="M522 4q-78 -20 -139 -20q-86 0 -143.5 53.5t-57.5 157.5v428q0 32 -4.5 36.5t-36.5 4.5h-37q-34 0 -38.5 4.5t-4.5 38.5v4q0 32 4 38.5t35 16.5l39 16q29 10 35 17t14 37l23 86q9 38 16 44t47 11l76 8q40 5 45.5 0t5.5 -45v-106q0 -32 4.5 -36.5t36.5 -4.5h72q39 0 45 -6 t6 -46v-26q0 -40 -5.5 -45.5t-45.5 -5.5h-72q-32 0 -36.5 -4.5t-4.5 -36.5v-412q0 -66 68 -66q8 0 33 5q37 7 43 2.5t12 -41.5q4 -30 8 -43q6 -40 1 -47.5t-44 -16.5z" />
<glyph unicode="u" horiz-adv-x="948" d="M575 31q-120 -54 -231 -54q-104 0 -167.5 75t-63.5 222v474q0 40 5.5 46t45.5 7l117 6q40 2 45.5 -3.5t5.5 -45.5v-473q0 -92 29.5 -126t95.5 -34q44 0 102 14q31 9 35 14.5t4 36.5v568q0 40 5.5 45.5t45.5 5.5h117q40 0 45.5 -5.5t5.5 -45.5v-707q0 -40 -5.5 -46.5 t-45.5 -10.5l-51 -8q-32 -5 -41.5 -1.5t-30.5 27.5l-2 2q-22 25 -29.5 27t-36.5 -10z" />
<glyph unicode="v" horiz-adv-x="858" d="M512 0h-172q-40 0 -48 5.5t-20 43.5l-225 711q-12 38 -8.5 43.5t43.5 5.5h115q40 0 47.5 -5.5t17.5 -43.5l152 -504q4 -14 6 -18.5t4 -9.5t4 0t4 9.5t6 18.5l156 504q10 38 17.5 43.5t47.5 5.5h115q40 0 43.5 -5.5t-8.5 -43.5l-229 -711q-12 -38 -20 -43.5t-48 -5.5z" />
<glyph unicode="w" horiz-adv-x="1318" d="M444 0h-161q-40 0 -47.5 5.5t-16.5 43.5q-168 678 -176 711q-9 38 -5 43.5t44 5.5h119q40 0 47 -5.5t14 -43.5l107 -490q4 -14 5.5 -18.5t3 -9.5t3 0t3 9.5t5.5 18.5q16 51 39 143.5t49.5 201t36.5 147.5q9 37 16 42t45 5h132q40 0 47 -5.5t16 -43.5l131 -490 q7 -28 11 -27.5t10 29.5l110 488q7 38 14.5 43.5t47.5 5.5h114q40 0 44 -5.5t-5 -43.5l-172 -711q-9 -38 -16 -43.5t-47 -5.5h-164q-40 0 -47.5 5.5t-16.5 43.5l-127 486q-7 28 -11 28t-11 -28l-127 -486q-9 -38 -16.5 -43.5t-47.5 -5.5z" />
<glyph unicode="x" horiz-adv-x="903" d="M209 0h-137q-22 0 -30 0.5t-11 5t1.5 11t16.5 24.5l238 338q17 26 17 32.5t-17 32.5l-226 324q-21 31 -18.5 36t41.5 5h131q38 0 48.5 -5t33.5 -36l106 -152q14 -19 19.5 -23t10.5 0t18 23l104 150q22 32 32 37.5t48 5.5h137q22 0 30 -0.5t11 -5t-1.5 -11t-16.5 -24.5 l-220 -313q-17 -27 -16.5 -33t19.5 -33l249 -348q7 -10 10.5 -14t6.5 -9.5t4 -7.5t-0.5 -5t-3.5 -3t-8.5 -1t-11.5 -1h-17h-131q-38 0 -48.5 5t-33.5 36l-131 182q-12 17 -14.5 21t-9 4t-9 -4t-14.5 -21l-127 -182q-22 -31 -32 -36t-48 -5z" />
<glyph unicode="y" horiz-adv-x="882" d="M346 -377l-106 6q-40 1 -43.5 6.5t10.5 42.5l139 371q5 12 3.5 14.5t-13.5 2.5h-4q-14 0 -17.5 2t-7.5 14l-278 680q-14 37 -10.5 42t42.5 5h115q40 0 48.5 -5.5t21.5 -41.5l166 -412q8 -21 11.5 -26t7 0t9.5 26l152 412q13 36 21.5 41.5t48.5 5.5h118q40 0 43.5 -5 t-10.5 -42l-397 -1094q-13 -36 -21.5 -41.5t-48.5 -3.5z" />
<glyph unicode="z" horiz-adv-x="749" d="M629 0h-506q-40 0 -45.5 5.5t-5.5 45.5v31q0 36 4 51t24 43l318 453q17 25 14.5 29t-33.5 4l-245 6q-40 0 -46 6t-6 45v39q0 39 6 45t46 6h477q40 0 45.5 -5.5t5.5 -45.5v-27q0 -36 -4.5 -50.5t-24.5 -43.5l-315 -455q-17 -25 -15 -28.5t33 -3.5l273 -3q40 0 45.5 -5.5 t5.5 -45.5v-45q0 -40 -5.5 -45.5t-45.5 -5.5z" />
<glyph unicode="{" horiz-adv-x="786" d="M645 -209v-2q0 -40 -5.5 -45.5t-45.5 -5.5q-92 3 -153 17t-109 47t-70 91.5t-22 147.5v270q0 126 -95 148q-40 7 -45.5 14.5t-5.5 48.5v21q0 40 5.5 47t45.5 14q50 9 72.5 43t22.5 98v244q0 88 19 144.5t63.5 91t108.5 49.5t163 18q40 0 45.5 -5.5t5.5 -45.5v-2 q0 -40 -5.5 -46t-45.5 -9q-20 -2 -36.5 -5t-29 -8t-22.5 -11.5t-17 -14.5t-12 -17t-8 -19.5t-5 -22t-2.5 -24t-0.5 -26v-27.5v-16v-243q0 -168 -144 -211q-22 -6 -22 -8.5t22 -6.5q144 -39 144 -215v-270q0 -41 1 -60.5t7.5 -48t20 -42t39.5 -26t65 -16.5q40 -5 45.5 -10.5 t5.5 -44.5z" />
<glyph unicode="|" horiz-adv-x="491" d="M264 -369h-76q-39 0 -45 6t-6 46v1540q0 40 5.5 45.5t45.5 5.5h76q40 0 45.5 -5.5t5.5 -45.5v-1540q0 -40 -6 -46t-45 -6z" />
<glyph unicode="}" horiz-adv-x="786" d="M532 41q0 -88 -22.5 -147t-70.5 -92t-109.5 -47t-153.5 -17q-40 0 -45.5 5.5t-5.5 45.5v21q0 40 5.5 46t45.5 9q33 2 56.5 8t38.5 18.5t23 23.5t12 34.5t4.5 39.5t0.5 50v270q0 176 144 215q22 4 22 6.5t-22 8.5q-144 43 -144 211v243v12v35t-1.5 29t-5 27t-10 21.5 t-16.5 18.5t-24 13t-33.5 10.5t-44.5 5.5q-39 3 -45 9.5t-6 46.5v20q0 40 5.5 45.5t45.5 5.5q198 -6 277 -69.5t79 -233.5v-244q0 -64 22.5 -98t72.5 -43q40 -7 45.5 -14t5.5 -47v-21q0 -41 -5.5 -48.5t-45.5 -14.5q-95 -22 -95 -148v-270z" />
<glyph unicode="~" horiz-adv-x="942" d="M827 385q-73 -133 -184 -133q-41 0 -82.5 17.5t-75 42t-65.5 49t-65.5 42t-61.5 17.5q-44 0 -96 -68q-23 -31 -29 -30.5t-23 32.5l-16 31q-17 32 -17 42t19 42q71 125 172 125q47 0 99.5 -26t91.5 -57t86 -57t84 -26q54 0 100 70q1 2 4 7q16 25 21 25q5 1 18 -21l2 -4 q3 -5 4 -7l14 -27q17 -32 17 -43t-17 -43z" />
<glyph unicode="&#xa1;" horiz-adv-x="503" d="M358 664q0 -49 -33.5 -84t-88.5 -35q-54 0 -88.5 34.5t-34.5 84.5q0 51 33.5 85.5t89.5 34.5q57 0 89.5 -35t32.5 -85zM297 -340h-121q-40 0 -45.5 5.5t-3.5 45.5l16 664q1 39 7.5 45t46.5 6h77q40 0 46.5 -6t7.5 -45l18 -664q2 -40 -3.5 -45.5t-45.5 -5.5z" />
<glyph unicode="&#xa2;" horiz-adv-x="712" d="M428 -229h-51q-40 0 -45.5 5.5t-5.5 45.5v123q0 32 -4.5 38t-36.5 13q-254 59 -254 407q0 149 70 247.5t186 140.5q31 10 35 16.5t4 38.5v137q0 40 5.5 45.5t45.5 5.5h51q40 0 45.5 -5.5t5.5 -45.5v-123q0 -32 4.5 -37.5t36.5 -9.5q25 -3 55 -10q37 -8 41 -14t0 -44 l-6 -40q-5 -40 -11 -45.5t-46 -2.5q-58 7 -137 7q-81 0 -125.5 -77.5t-44.5 -191.5q0 -53 10 -97t31.5 -80.5t60 -57.5t90.5 -21q60 0 148 19q38 8 44.5 3.5t10.5 -44.5l2 -17q3 -34 -1 -41t-36 -22q-46 -22 -86 -35q-32 -9 -36.5 -15t-4.5 -38v-127q0 -40 -5.5 -45.5 t-45.5 -5.5z" />
<glyph unicode="&#xa3;" horiz-adv-x="923" d="M799 0h-666q-40 0 -47 5.5t-16 43.5l-9 35q-10 41 -7 52t34 40q84 75 119 289q5 31 1.5 35.5t-34.5 5.5q-36 4 -57 4q-40 3 -45.5 9t-5.5 46v39q0 40 5.5 45.5t45.5 5.5h65q32 0 36.5 4t4.5 35q2 16 2 45q0 93 23.5 165t60.5 114t89 69t102.5 36.5t107.5 9.5 q91 0 197 -27q38 -10 42 -17t-5 -47l-21 -81q-9 -39 -15.5 -42.5t-43.5 11.5q-95 37 -152 37q-69 0 -113 -51t-44 -173q0 -31 -2 -47q0 -32 4.5 -36.5t36.5 -4.5h135q40 0 45.5 -5.5t5.5 -45.5v-69q0 -40 -5.5 -45.5t-45.5 -4.5l-148 9q-31 2 -37 -2.5t-10 -36.5 q-30 -170 -94 -256q-8 -11 -10.5 -15.5t-5 -8.5t2.5 -4.5l10 -1t19 0.5l445 18q40 2 45.5 -3.5t5.5 -45.5v-88q0 -40 -5.5 -45.5t-45.5 -5.5z" />
<glyph unicode="&#xa4;" horiz-adv-x="1198" d="M315 172l-86 -86q-29 -29 -36.5 -29t-36.5 29l-50 51q-29 29 -29 37t29 37l89 88q23 23 23.5 30t-15.5 36q-47 83 -47 190q0 102 47 188q17 28 16 35.5t-24 30.5l-89 90q-29 29 -29 37t29 37l50 49q29 29 36.5 29t36.5 -29l86 -88q23 -23 30 -23.5t36 13.5q83 45 197 45 q102 0 186 -41q29 -15 36.5 -14t30.5 24l87 84q29 29 36.5 29t36.5 -29l51 -49q29 -29 29 -37t-29 -37l-84 -86q-23 -23 -24 -30t16 -35q47 -86 47 -193q0 -113 -49 -201q-15 -26 -14.5 -31.5t22.5 -27.5q8 -8 25.5 -26t32 -32.5t26.5 -25.5q29 -29 29 -37t-29 -37l-49 -51 q-29 -29 -36.5 -29t-36.5 29l-87 84q-23 23 -30.5 24t-36.5 -14q-84 -41 -186 -41q-110 0 -197 43q-28 15 -35.5 14t-30.5 -24zM319 555q0 -109 76 -185.5t183 -76.5q106 0 182 77t76 185q0 107 -76 184.5t-182 77.5q-107 0 -183 -77t-76 -185z" />
<glyph unicode="&#xa5;" horiz-adv-x="1087" d="M621 0h-152q-31 0 -35 4t-4 35v4q0 31 -4 35t-35 4h-149q-40 0 -46 6t-6 45v33q0 39 6 45t46 6h147q32 0 36.5 4.5t4.5 36.5v35q0 32 -4.5 36.5t-36.5 4.5h-147q-40 0 -46 6t-6 45v35q0 39 6 45t46 6h159h6t3.5 1t1.5 3v6v4q0 11 -6 19l-322 551q-9 14 -12 19t-5 12.5 t-1 8.5t7.5 3t13 2h22.5h141q38 0 47.5 -5.5t28.5 -39.5l200 -373q4 -7 7 -8.5t12 -1.5h4q7 0 9 1t7 9l203 373q19 34 28.5 39.5t47.5 5.5h143q39 0 42 -5.5t-17 -37.5l-328 -553q-6 -8 -6 -19v-4q0 -7 1 -8.5t9 -1.5h160q40 0 45.5 -5.5t5.5 -45.5v-35q0 -40 -5.5 -45.5 t-45.5 -5.5h-148q-32 0 -36.5 -4.5t-4.5 -36.5v-35q0 -32 4.5 -36.5t36.5 -4.5h148q40 0 45.5 -5.5t5.5 -45.5v-33q0 -40 -5.5 -45.5t-45.5 -5.5h-150q-31 0 -35 -4t-4 -35v-4q0 -31 -4 -35t-34 -4z" />
<glyph unicode="&#xa6;" horiz-adv-x="436" d="M197 -360h-52q-40 0 -45.5 5.5t-5.5 45.5v497q0 40 6 46t45 6h52q39 0 45 -6t6 -46v-497q0 -40 -5.5 -45.5t-45.5 -5.5zM197 664h-52q-40 0 -45.5 5.5t-5.5 45.5v497q0 40 6 46t45 6h52q39 0 45 -6t6 -46v-497q0 -40 -5.5 -45.5t-45.5 -5.5z" />
<glyph unicode="&#xa7;" horiz-adv-x="753" d="M670 -170q0 -56 -21.5 -103.5t-57.5 -80t-83.5 -55.5t-98 -33.5t-102.5 -10.5q-91 0 -176 29q-38 10 -42.5 18t3.5 46l10 53q8 38 14.5 42t43.5 -9q106 -33 164 -33t100.5 25.5t42.5 76.5q0 31 -18.5 53.5t-48.5 35t-68.5 25.5t-78.5 23.5t-78.5 29t-68.5 42t-48.5 63 t-18.5 91.5q0 109 106 184q25 17 25 21.5t-23 23.5q-90 70 -90 154q0 79 48 141.5t122.5 94.5t157.5 32q65 0 131 -16q38 -9 43 -16.5t-4 -45.5l-8 -33q-9 -38 -16.5 -43t-47.5 0q-40 7 -77 7q-25 0 -50 -5t-50 -16t-40.5 -32.5t-15.5 -49.5q0 -34 32.5 -57t81.5 -35 t106 -30t106 -39t81.5 -64.5t32.5 -104.5q0 -114 -104 -200q-23 -20 -23 -25t23 -24q84 -72 84 -150zM229 176q0 -50 39.5 -70t112.5 -20q111 0 111 98q0 51 -38 71.5t-112 20.5q-113 0 -113 -100z" />
<glyph unicode="&#xa8;" horiz-adv-x="884" d="M387 1036q0 -46 -35 -79t-82 -33q-50 0 -84 33t-34 79q0 48 34 81.5t84 33.5q47 0 82 -34t35 -81zM715 1036q0 -46 -35 -79t-82 -33q-50 0 -84.5 33t-34.5 79q0 48 34 81.5t85 33.5q47 0 82 -34t35 -81z" />
<glyph unicode="&#xa9;" horiz-adv-x="1466" d="M905 147q-93 -38 -160 -38q-61 0 -113 18.5t-94 56t-65.5 102t-23.5 150.5q0 84 27 149t73 103t101.5 57t117.5 19q46 0 109 -14q35 -10 39 -17.5t-1 -42.5l-2 -10q-4 -38 -10.5 -43t-44.5 -2q-46 6 -108 6t-97 -59t-35 -146q0 -88 44.5 -143t128.5 -55q44 0 98 12 q34 6 39.5 2.5t9.5 -37.5v-6q5 -34 1 -41.5t-34 -20.5zM1346 430q0 -165 -81.5 -306.5t-222.5 -224.5t-307 -83t-307.5 83t-224 224.5t-82.5 306.5q0 166 82.5 307t224 223t307.5 82t307 -82t222.5 -223t81.5 -307zM268 430q0 -126 63 -233.5t170.5 -170.5t233.5 -63t233 63 t169.5 170.5t62.5 233.5t-62.5 233.5t-169.5 170.5t-233 63t-233.5 -63t-170.5 -170.5t-63 -233.5z" />
<glyph unicode="&#xaa;" horiz-adv-x="884" d="M479 555q-74 -43 -149 -43q-82 0 -131 52.5t-49 140.5q0 97 70.5 141.5t172.5 44.5q32 0 64 -4t36.5 0t4.5 35v53q0 94 -121 94q-59 0 -127 -29q-37 -14 -43 -10.5t-12 43.5v8q-7 38 -2.5 46.5t40.5 21.5q110 39 197 39q63 0 117.5 -21t91.5 -67.5t37 -108.5v-344 q0 -23 3 -25t26 1h4q23 3 26 0.5t8 -25.5l5 -12q6 -28 3.5 -33.5t-28.5 -15.5q-67 -25 -111 -25q-45 0 -80 35q-19 22 -24.5 22.5t-28.5 -14.5zM319 705q0 -36 24 -55t63 -19q28 0 55 10q29 9 33 14.5t4 34.5v70q0 32 -4.5 36t-36.5 1q-138 -9 -138 -92z" />
<glyph unicode="&#xab;" horiz-adv-x="1019" d="M492 29h-5q-17 0 -21.5 1.5t-16.5 12.5l-324 313q-29 28 -29 36t29 36l330 307q11 9 15.5 11t18.5 2h5q13 0 15.5 -2.5t2.5 -16.5v-55q0 -36 -5 -49t-28 -41l-127 -156q-20 -25 -20.5 -31.5t18.5 -31.5l131 -170q22 -29 26.5 -43.5t4.5 -49.5v-51q0 -17 -2.5 -19.5 t-17.5 -2.5zM897 29h-4q-17 0 -22 2t-17 12l-324 313q-29 28 -29 36t29 36l330 307q11 9 15.5 11t19.5 2h4q13 0 16 -3t3 -16v-55q0 -36 -5 -49t-28 -41l-127 -156q-20 -25 -20.5 -31.5t18.5 -31.5l131 -170q22 -29 26.5 -43.5t4.5 -49.5v-51q0 -17 -2.5 -19.5t-18.5 -2.5z " />
<glyph unicode="&#xac;" horiz-adv-x="933" d="M750 37h-93q-40 0 -45.5 5.5t-5.5 45.5v203q0 32 -4.5 36.5t-36.5 4.5h-442q-40 0 -45.5 5.5t-5.5 45.5v41q0 40 5.5 45.5t45.5 5.5h549q48 0 84 -10h4q32 -7 36.5 -13t4.5 -40v-324q0 -40 -5.5 -45.5t-45.5 -5.5z" />
<glyph unicode="&#xad;" horiz-adv-x="624" d="M455 338h-277q-40 0 -45.5 5.5t-5.5 45.5v62q0 40 5.5 45.5t45.5 5.5h277q40 0 45.5 -5.5t5.5 -45.5v-62q0 -40 -5.5 -45.5t-45.5 -5.5z" />
<glyph unicode="&#xae;" horiz-adv-x="1466" d="M610 127h-51q-40 0 -45.5 5.5t-5.5 45.5v531q0 40 5.5 46t45.5 7q67 6 186 6q109 0 174.5 -57t65.5 -140q0 -106 -98 -161q-28 -15 -29 -21.5t16 -32.5l101 -155q22 -34 19.5 -40.5t-40.5 -15.5l-47 -12q-38 -9 -46 -5.5t-27 38.5l-103 184q-9 17 -14 20t-25 3h-4 q-21 0 -23.5 -2.5t-2.5 -24.5v-168q0 -39 -6 -45t-46 -6zM1346 430q0 -165 -81.5 -306.5t-222.5 -224.5t-307 -83t-307.5 83t-224 224.5t-82.5 306.5q0 166 82.5 307t224 223t307.5 82t307 -82t222.5 -223t81.5 -307zM268 430q0 -126 63 -233.5t170.5 -170.5t233.5 -63 t233 63t169.5 170.5t62.5 233.5t-62.5 233.5t-169.5 170.5t-233 63t-233.5 -63t-170.5 -170.5t-63 -233.5zM657 627v-119q0 -26 3.5 -29.5t29.5 -3.5h37q50 0 79.5 27.5t29.5 66.5q0 40 -26.5 65t-82.5 25h-37q-27 0 -30 -3t-3 -29z" />
<glyph unicode="&#xb0;" horiz-adv-x="808" d="M694 844q0 -122 -87.5 -206.5t-213.5 -84.5q-127 0 -216 83.5t-89 207.5t88.5 206.5t216.5 82.5q127 0 214 -82t87 -207zM233 846q0 -65 47 -112.5t111 -47.5q66 0 110 47t44 113q0 65 -43.5 108t-110.5 43q-65 0 -111.5 -43.5t-46.5 -107.5z" />
<glyph unicode="&#xb1;" horiz-adv-x="942" d="M539 350h-66q-40 0 -45.5 5.5t-5.5 45.5v168q0 32 -4.5 36.5t-36.5 4.5h-137q-39 0 -45 6t-6 46v38q0 40 6 46t45 6h137q32 0 36.5 4.5t4.5 36.5v149q0 40 5.5 45.5t45.5 5.5h66q40 0 45.5 -5.5t5.5 -45.5v-149q0 -32 4.5 -36.5t36.5 -4.5h137q39 0 45 -6t6 -46v-38 q0 -40 -6 -46t-45 -6h-137q-32 0 -36.5 -4.5t-4.5 -36.5v-168q0 -40 -5.5 -45.5t-45.5 -5.5zM784 100h-559q-39 0 -45 6t-6 46v45q0 40 5.5 45.5t45.5 5.5h559q40 0 46 -6t6 -45v-45q0 -40 -6 -46t-46 -6z" />
<glyph unicode="&#xb2;" horiz-adv-x="837" d="M618 512h-411q-40 0 -45.5 5.5t-5.5 45.5v8q0 37 5.5 49.5t31.5 38.5l33 33q98 98 142.5 144.5t84 103.5t39.5 92q0 80 -144 80q-26 0 -104 -10q-40 -8 -47 -3t-11 44v10q-5 40 0 47t43 14q98 25 177 25q47 0 87.5 -8.5t80 -28t62.5 -59.5t23 -96q0 -40 -11 -74.5 t-39.5 -75.5t-59 -76t-89.5 -98q-26 -28 -40 -43q-22 -23 -20.5 -26t32.5 -5h186q40 0 46 -6t6 -45v-35q0 -39 -6 -45t-46 -6z" />
<glyph unicode="&#xb3;" horiz-adv-x="886" d="M737 621q0 -102 -82.5 -178t-224.5 -76q-102 0 -180 20q-41 10 -46 18.5t3 51.5v4q7 40 14 44.5t47 -1.5q58 -8 101 -8q186 0 186 135q0 56 -38 92.5t-111 36.5h-68q-40 0 -45.5 5.5t-5.5 45.5v12q0 40 5.5 45.5t45.5 5.5h65q61 0 96.5 39.5t35.5 96.5q0 108 -156 108 q-34 0 -84 -8q-38 -5 -44.5 0t-12.5 43l-2 4q-7 38 -2.5 45.5t40.5 16.5q90 22 187 22q111 0 175 -63.5t64 -147.5q0 -124 -98 -178q-23 -12 -23 -16.5t25 -14.5q133 -57 133 -200z" />
<glyph unicode="&#xb4;" horiz-adv-x="468" d="M203 907h-49q-40 0 -43.5 5t10.5 42l51 140q13 36 21.5 41.5t48.5 5.5h104q38 0 41.5 -5.5t-16.5 -37.5l-90 -148q-20 -32 -30 -37.5t-48 -5.5z" />
<glyph unicode="&#xb5;" horiz-adv-x="931" d="M272 -350h-116q-40 0 -46 6t-6 45v1055q0 39 6 45t46 6h116q40 0 46 -6t6 -45v-482q0 -86 29.5 -117.5t95.5 -31.5q44 0 102 14q31 9 35 14.5t4 36.5v566q0 40 5.5 45.5t45.5 5.5h117q40 0 45.5 -5.5t5.5 -45.5v-705q0 -40 -5.5 -46.5t-45.5 -10.5l-51 -8 q-32 -5 -41.5 -1.5t-30.5 27.5l-2 2q-22 25 -29.5 27t-36.5 -10q-101 -42 -202 -49q-32 -3 -36.5 -8t-4.5 -37v-236q0 -39 -6 -45t-46 -6z" />
<glyph unicode="&#xb6;" horiz-adv-x="1036" d="M473 0h-47q-40 0 -45.5 5.5t-5.5 45.5v467q0 32 -4.5 37.5t-36.5 9.5q-99 15 -165.5 91.5t-66.5 177.5q0 112 80 192t193 80h514q40 0 45.5 -5.5t5.5 -45.5v-49q0 -40 -6 -46.5t-45 -7.5l-62 -4q-32 -1 -36.5 -6t-4.5 -37v-854q0 -40 -5.5 -45.5t-45.5 -5.5h-45 q-40 0 -45.5 5.5t-5.5 45.5v850q0 32 -4.5 36.5t-36.5 2.5l-33 -2q-32 -1 -36.5 -6t-4.5 -37v-844q0 -40 -5.5 -45.5t-45.5 -5.5z" />
<glyph unicode="&#xb7;" horiz-adv-x="417" d="M322 393q0 -49 -35.5 -84t-85.5 -35q-52 0 -87.5 34.5t-35.5 84.5q0 48 35.5 82.5t87.5 34.5q49 0 85 -35t36 -82z" />
<glyph unicode="&#xb8;" horiz-adv-x="884" d="M571 -164q0 -53 -34 -81.5t-91 -28.5q-63 0 -114 34q-15 11 -18 16t-3 25v11q0 23 2.5 25.5t26.5 0.5h39q32 -1 35.5 3t-4.5 36q-10 40 -39 84q-22 29 -19.5 34t39.5 5h39q36 0 46.5 -5t33.5 -32q61 -69 61 -127z" />
<glyph unicode="&#xb9;" horiz-adv-x="720" d="M524 512h-311q-40 0 -45.5 5.5t-5.5 45.5v4q0 40 6 47t45 11l43 4q32 3 36.5 8t4.5 37v336q0 32 -4.5 35.5t-36.5 -1.5l-16 -2q-40 -6 -47 -1t-13 44v13q-6 40 -1.5 47.5t42.5 17.5l199 56q10 4 29 4h4q10 0 12 -2t2 -13v-534q0 -32 4.5 -37.5t36.5 -9.5l16 -2 q39 -4 45 -11t6 -47v-4q0 -40 -5.5 -45.5t-45.5 -5.5z" />
<glyph unicode="&#xba;" d="M819 864q0 -153 -80.5 -249t-210.5 -119q-57 -8 -116 0q-135 16 -220.5 110t-85.5 258q0 173 102.5 275t254.5 102q155 0 255.5 -97.5t100.5 -279.5zM276 864q0 -108 48.5 -170.5t138.5 -62.5t139 65t49 168q0 108 -49 172t-139 64q-88 0 -137.5 -66.5t-49.5 -169.5z" />
<glyph unicode="&#xbb;" horiz-adv-x="1019" d="M129 29h-4q-18 0 -20.5 2.5t-2.5 19.5v51q0 35 4.5 49.5t26.5 43.5l131 170q19 25 18.5 31.5t-20.5 31.5l-127 156q-23 28 -28 41t-5 49v55q0 14 3 16.5t18 2.5h4q13 0 17.5 -2t15.5 -11l329 -307q29 -28 29 -36t-29 -36l-323 -313q-12 -10 -17 -12t-20 -2zM535 29h-5 q-17 0 -19.5 2.5t-2.5 19.5v51q0 35 4.5 49.5t26.5 43.5l131 170q19 25 18.5 31.5t-20.5 31.5l-127 156q-23 28 -28 41t-5 49v55q0 14 2.5 16.5t17.5 2.5h4q13 0 17.5 -2t15.5 -11l330 -307q29 -28 29 -36t-29 -36l-324 -313q-12 -10 -16.5 -12t-19.5 -2z" />
<glyph unicode="&#xbc;" horiz-adv-x="1570" d="M449 -281h-72q-40 0 -43 5.5t16 39.5l711 1244q19 34 28.5 39.5t47.5 5.5h71q39 0 42.5 -5.5t-15.5 -39.5l-711 -1244q-19 -34 -28 -39.5t-47 -5.5zM541 410h-312q-40 0 -45.5 5.5t-5.5 45.5v4q0 40 5.5 46.5t45.5 10.5l43 4q32 3 36.5 8t4.5 37v336q0 32 -4.5 36 t-36.5 -1l-16 -2q-40 -6 -46.5 -1.5t-12.5 44.5v12q-6 40 -1.5 48t42.5 18l198 55q10 4 29 4h4q11 0 12.5 -2t1.5 -12v-535q0 -32 4.5 -37.5t36.5 -9.5l17 -2q40 -4 45.5 -10.5t5.5 -46.5v-4q0 -40 -5.5 -45.5t-45.5 -5.5zM1384 -274h-61q-40 0 -45.5 5.5t-5.5 45.5v133 q0 32 -4.5 36.5t-36.5 4.5h-264q-40 0 -46 6t-6 45v12q0 35 4.5 50.5t22.5 44.5l254 421q20 32 30 37.5t48 5.5h110q40 0 46 -6t6 -45v-397q0 -32 4.5 -36.5t36.5 -4.5h26q40 0 45.5 -5.5t5.5 -45.5v-31q0 -40 -5.5 -45.5t-45.5 -5.5h-26q-32 0 -36.5 -4.5t-4.5 -36.5v-133 q0 -39 -6 -45t-46 -6zM1251 371l-131 -240q-19 -32 -16.5 -39.5t37.5 -7.5h92q32 0 36.5 4.5t4.5 36.5l6 244q0 7 -1 8.5t-9 1.5h-4q-11 0 -15 -8z" />
<glyph unicode="&#xbd;" horiz-adv-x="1570" d="M449 -281h-72q-40 0 -43 5.5t16 39.5l711 1244q19 34 28.5 39.5t47.5 5.5h71q39 0 42.5 -5.5t-15.5 -39.5l-711 -1244q-19 -34 -28 -39.5t-47 -5.5zM1473 -211h-412q-40 0 -45.5 5.5t-5.5 45.5v8q0 37 5.5 50t31.5 39q16 16 47 48q69 71 102 105.5t74 82.5t57 80t16 58 q0 80 -141 80q-26 0 -104 -10q-40 -8 -47 -3t-11 44v10q-5 40 0 47.5t43 16.5q103 22 174 22q47 0 88.5 -8.5t81 -28t63 -60t23.5 -97.5q0 -75 -42 -137t-163 -193q-22 -24 -34 -37q-22 -23 -20.5 -26t32.5 -5h187q40 0 45.5 -5.5t5.5 -45.5v-35q0 -40 -5.5 -45.5 t-45.5 -5.5zM541 410h-312q-40 0 -45.5 5.5t-5.5 45.5v4q0 40 5.5 46.5t45.5 10.5l43 4q32 3 36.5 8t4.5 37v336q0 32 -4.5 36t-36.5 -1l-16 -2q-40 -6 -46.5 -1.5t-12.5 44.5v12q-6 40 -1.5 48t42.5 18l198 55q10 4 29 4h4q11 0 12.5 -2t1.5 -12v-535q0 -32 4.5 -37.5 t36.5 -9.5l17 -2q40 -4 45.5 -10.5t5.5 -46.5v-4q0 -40 -5.5 -45.5t-45.5 -5.5z" />
<glyph unicode="&#xbe;" horiz-adv-x="1611" d="M1372 -274h-61q-40 0 -45.5 5.5t-5.5 45.5v133q0 32 -4.5 36.5t-36.5 4.5h-265q-40 0 -45.5 5.5t-5.5 45.5v12q0 35 4.5 50.5t22.5 44.5l254 421q20 32 30 37.5t48 5.5h110q40 0 45.5 -5.5t5.5 -45.5v-397q0 -32 4.5 -36.5t36.5 -4.5h27q40 0 45.5 -5.5t5.5 -45.5v-31 q0 -40 -5.5 -45.5t-45.5 -5.5h-27q-32 0 -36.5 -4.5t-4.5 -36.5v-133q0 -40 -5.5 -45.5t-45.5 -5.5zM641 516q0 -102 -82.5 -178t-224.5 -76q-98 0 -180 21q-41 10 -46 18t3 51v4q7 40 14 44.5t47 -1.5q58 -8 100 -8q187 0 187 135q0 56 -38.5 92.5t-111.5 36.5h-67 q-40 0 -46 6t-6 46v12q0 39 6 45t46 6h65q61 0 96 39t35 96q0 109 -155 109q-34 0 -84 -8q-39 -5 -45.5 0t-12.5 43l-2 4q-6 38 -2 45t41 16q94 23 187 23q111 0 175 -63.5t64 -147.5q0 -124 -98 -178q-23 -12 -23 -16.5t25 -14.5q133 -57 133 -201zM440 -281h-71 q-39 0 -42.5 5.5t15.5 39.5l711 1244q19 34 28 39.5t47 5.5h72q40 0 43 -5.5t-16 -39.5l-711 -1244q-19 -34 -28.5 -39.5t-47.5 -5.5zM1239 371l-131 -240q-20 -32 -17 -39.5t37 -7.5h93q32 0 36.5 4.5t4.5 36.5l6 244q0 7 -1.5 8.5t-9.5 1.5h-4q-10 0 -14 -8z" />
<glyph unicode="&#xbf;" horiz-adv-x="720" d="M373 420h108q31 0 36.5 -4t14.5 -35t9 -47q0 -45 -14 -85.5t-36 -70t-48.5 -56.5t-53 -51t-48.5 -47t-36 -50t-14 -56q0 -37 13.5 -62t39.5 -37t53 -16t64 -4q39 0 123 13q40 6 46.5 1.5t12.5 -44.5l4 -27q5 -40 0.5 -47.5t-41.5 -20.5q-131 -41 -207 -41q-44 0 -85 5.5 t-88.5 23t-82 46t-57.5 79.5t-23 119q0 62 29.5 113.5t71.5 88.5t83.5 72t71 79.5t29.5 94.5q0 5 -1 17t-1 18q-4 25 -1 28t28 3zM309 664q0 45 35.5 78.5t81.5 33.5q50 0 84.5 -33t34.5 -79q0 -48 -34 -81.5t-85 -33.5q-46 0 -81.5 34t-35.5 81z" />
<glyph unicode="&#xc0;" horiz-adv-x="1187" d="M276 0h-131q-39 0 -42.5 5.5t8.5 43.5l364 1008q12 38 20 43.5t48 5.5h162q40 0 47.5 -5.5t19.5 -43.5l365 -1008q12 -38 8.5 -43.5t-43.5 -5.5h-133q-40 0 -48 5.5t-20 43.5l-70 199q-10 31 -16.5 35t-38.5 4h-309q-32 0 -38 -4t-15 -35l-70 -199q-12 -38 -20 -43.5 t-48 -5.5zM602 854l-115 -373q-9 -31 -6 -35t35 -4h211q32 0 35 4t-6 35l-113 373q-3 10 -5 12t-13 2h-4q-11 0 -13.5 -2t-5.5 -12zM649 1204h-49q-38 0 -48 5.5t-30 37.5l-90 148q-20 32 -17 37.5t42 5.5h104q40 0 48.5 -5.5t21.5 -41.5l51 -140q14 -37 10.5 -42t-43.5 -5z " />
<glyph unicode="&#xc1;" horiz-adv-x="1187" d="M276 0h-131q-39 0 -42.5 5.5t8.5 43.5l364 1008q12 38 20 43.5t48 5.5h162q40 0 47.5 -5.5t19.5 -43.5l365 -1008q12 -38 8.5 -43.5t-43.5 -5.5h-133q-40 0 -48 5.5t-20 43.5l-70 199q-10 31 -16.5 35t-38.5 4h-309q-32 0 -38 -4t-15 -35l-70 -199q-12 -38 -20 -43.5 t-48 -5.5zM602 854l-115 -373q-9 -31 -6 -35t35 -4h211q32 0 35 4t-6 35l-113 373q-3 10 -5 12t-13 2h-4q-11 0 -13.5 -2t-5.5 -12zM645 1204h-49q-40 0 -43.5 5t10.5 42l51 140q13 36 21.5 41.5t48.5 5.5h104q38 0 41.5 -5.5t-16.5 -37.5l-90 -148q-20 -32 -30 -37.5 t-48 -5.5z" />
<glyph unicode="&#xc2;" horiz-adv-x="1187" d="M276 0h-131q-39 0 -42.5 5.5t8.5 43.5l364 1008q12 38 20 43.5t48 5.5h162q40 0 47.5 -5.5t19.5 -43.5l365 -1008q12 -38 8.5 -43.5t-43.5 -5.5h-133q-40 0 -48 5.5t-20 43.5l-70 199q-10 31 -16.5 35t-38.5 4h-309q-32 0 -38 -4t-15 -35l-70 -199q-12 -38 -20 -43.5 t-48 -5.5zM602 854l-115 -373q-9 -31 -6 -35t35 -4h211q32 0 35 4t-6 35l-113 373q-3 10 -5 12t-13 2h-4q-11 0 -13.5 -2t-5.5 -12zM475 1208h-86h-22t-12 1.5t-6.5 3t2.5 7t7 10t15 15.5l123 135q26 27 37.5 32t48.5 5h75q37 0 48.5 -5t37.5 -32l123 -135q11 -11 15 -15.5 t7 -10t2.5 -7t-6.5 -3t-12 -1.5h-22h-84q-38 0 -48.5 5t-35.5 34l-35 43q-20 25 -26.5 25t-26.5 -25l-35 -43q-25 -29 -35.5 -34t-48.5 -5z" />
<glyph unicode="&#xc3;" horiz-adv-x="1187" d="M276 0h-131q-39 0 -42.5 5.5t8.5 43.5l364 1008q12 38 20 43.5t48 5.5h162q40 0 47.5 -5.5t19.5 -43.5l365 -1008q12 -38 8.5 -43.5t-43.5 -5.5h-133q-40 0 -48 5.5t-20 43.5l-70 199q-10 31 -16.5 35t-38.5 4h-309q-32 0 -38 -4t-15 -35l-70 -199q-12 -38 -20 -43.5 t-48 -5.5zM602 854l-115 -373q-9 -31 -6 -35t35 -4h211q32 0 35 4t-6 35l-113 373q-3 10 -5 12t-13 2h-4q-11 0 -13.5 -2t-5.5 -12zM514 1292q-31 0 -68 -41l-7 -7q-20 -20 -25 -17q-5 2 -19 26l-2 4l-4 9q-17 29 -17 37.5t19 37.5q60 89 127 89q40 0 78.5 -20t70 -40 t56.5 -20q33 0 80 47q23 25 28.5 24t22.5 -30l4 -7q17 -28 17 -35.5t-17 -35.5q-57 -101 -139 -101q-44 0 -83 20t-69 40t-53 20z" />
<glyph unicode="&#xc4;" horiz-adv-x="1187" d="M276 0h-131q-39 0 -42.5 5.5t8.5 43.5l364 1008q12 38 20 43.5t48 5.5h162q40 0 47.5 -5.5t19.5 -43.5l365 -1008q12 -38 8.5 -43.5t-43.5 -5.5h-133q-40 0 -48 5.5t-20 43.5l-70 199q-10 31 -16.5 35t-38.5 4h-309q-32 0 -38 -4t-15 -35l-70 -199q-12 -38 -20 -43.5 t-48 -5.5zM602 854l-115 -373q-9 -31 -6 -35t35 -4h211q32 0 35 4t-6 35l-113 373q-3 10 -5 12t-13 2h-4q-11 0 -13.5 -2t-5.5 -12zM580 1333q0 -46 -35 -79t-82 -33q-50 0 -84.5 33t-34.5 79q0 48 34 81.5t85 33.5q47 0 82 -34t35 -81zM907 1333q0 -46 -34.5 -79t-81.5 -33 q-50 0 -84.5 33t-34.5 79q0 48 34 81.5t85 33.5q47 0 81.5 -34t34.5 -81z" />
<glyph unicode="&#xc5;" horiz-adv-x="1187" d="M276 0h-131q-39 0 -42.5 5.5t8.5 43.5l364 1008q12 38 20 43.5t48 5.5h162q40 0 47.5 -5.5t19.5 -43.5l365 -1008q12 -38 8.5 -43.5t-43.5 -5.5h-133q-40 0 -48 5.5t-20 43.5l-70 199q-10 31 -16.5 35t-38.5 4h-309q-32 0 -38 -4t-15 -35l-70 -199q-12 -38 -20 -43.5 t-48 -5.5zM602 854l-115 -373q-9 -31 -6 -35t35 -4h211q32 0 35 4t-6 35l-113 373q-3 10 -5 12t-13 2h-4q-11 0 -13.5 -2t-5.5 -12zM774 1339q0 -61 -44 -103t-107 -42q-64 0 -109 41.5t-45 103.5t45 104t109 42t107.5 -41.5t43.5 -104.5zM578 1341q0 -19 14 -33t33 -14 t32 14t13 33q0 20 -13 34t-32 14t-33 -14t-14 -34z" />
<glyph unicode="&#xc6;" horiz-adv-x="1536" d="M252 0h-133q-40 0 -43.5 5t10.5 42l408 1012q13 37 21 42t48 5h799q40 0 45.5 -5.5t5.5 -45.5v-68q0 -40 -5.5 -45.5t-45.5 -5.5h-342q-32 0 -36.5 -4.5t-4.5 -36.5v-203q0 -32 4.5 -36.5t36.5 -4.5h299q40 0 45.5 -5.5t5.5 -45.5v-65q0 -40 -6 -46t-45 -6h-299 q-32 0 -36.5 -4.5t-4.5 -36.5v-237q0 -32 4.5 -36.5t36.5 -4.5h350q40 0 45.5 -5.5t5.5 -45.5v-62q0 -40 -5.5 -45.5t-45.5 -5.5h-565q-40 0 -45.5 5.5t-5.5 45.5v234q0 32 -4.5 36.5t-36.5 4.5h-240q-32 0 -38.5 -4t-16.5 -35l-96 -240q-13 -36 -21.5 -41.5t-48.5 -5.5z M635 858l-129 -326q-11 -31 -8.5 -34.5t34.5 -3.5h181q32 0 36.5 4.5t4.5 36.5v321q0 32 -4.5 36.5t-36.5 4.5h-23q-32 0 -38.5 -4t-16.5 -35z" />
<glyph unicode="&#xc7;" horiz-adv-x="950" d="M653 -164q0 -53 -34 -81.5t-91 -28.5q-63 0 -114 34q-15 11 -18 16t-3 25v11q0 23 2.5 25.5t26.5 0.5h39q32 -1 35.5 3t-4.5 36q-10 40 -39 84q-17 20 -19 27q-64 10 -118 33.5t-102 67.5t-81 105.5t-52.5 151t-19.5 199.5q0 271 135.5 423t366.5 152q111 0 217 -26 q38 -9 42.5 -15.5t-3.5 -44.5l-12 -57q-7 -39 -14.5 -44t-47.5 1q-73 12 -139 12q-100 0 -163 -36t-97.5 -125t-34.5 -238q0 -204 73 -294.5t228 -90.5q67 0 172 28q38 11 45 6.5t11 -42.5l8 -52q4 -40 0 -47t-39 -22q-97 -41 -234 -49q8 -12 17 -21q61 -69 61 -127z" />
<glyph unicode="&#xc8;" horiz-adv-x="921" d="M774 0h-557q-40 0 -45.5 5.5t-5.5 45.5v1004q0 40 5.5 45.5t45.5 5.5h549q40 0 45.5 -5.5t5.5 -45.5v-62q0 -40 -5.5 -45.5t-45.5 -5.5h-330q-32 0 -36.5 -4.5t-4.5 -36.5v-205q0 -32 4.5 -36.5t36.5 -4.5h287q40 0 45.5 -5.5t3.5 -45.5v-53q-1 -40 -7 -45.5t-46 -5.5 h-283q-32 0 -36.5 -4.5t-4.5 -36.5v-252q0 -32 4.5 -36.5t36.5 -4.5h338q40 0 45.5 -5.5t5.5 -45.5v-64q0 -40 -5.5 -45.5t-45.5 -5.5zM537 1204h-50q-38 0 -47.5 5.5t-29.5 37.5l-91 148q-20 32 -16.5 37.5t41.5 5.5h105q40 0 48 -5t21 -42l51 -140q14 -37 10.5 -42 t-42.5 -5z" />
<glyph unicode="&#xc9;" horiz-adv-x="921" d="M782 0h-557q-40 0 -45.5 5.5t-5.5 45.5v1004q0 40 5.5 45.5t45.5 5.5h549q40 0 45.5 -5.5t5.5 -45.5v-62q0 -40 -5.5 -45.5t-45.5 -5.5h-330q-32 0 -36.5 -4.5t-4.5 -36.5v-205q0 -32 4.5 -36.5t36.5 -4.5h287q40 0 45.5 -5.5t3.5 -45.5v-53q-1 -40 -7 -45.5t-46 -5.5 h-283q-32 0 -36.5 -4.5t-4.5 -36.5v-252q0 -32 4.5 -36.5t36.5 -4.5h338q40 0 46 -6t6 -45v-64q0 -39 -6 -45t-46 -6zM494 1204h-50q-39 0 -42.5 5t10.5 42l51 140q13 37 21 42t48 5h105q39 0 42 -5.5t-17 -37.5l-91 -148q-20 -32 -29.5 -37.5t-47.5 -5.5z" />
<glyph unicode="&#xca;" horiz-adv-x="921" d="M774 0h-557q-40 0 -45.5 5.5t-5.5 45.5v1004q0 40 5.5 45.5t45.5 5.5h549q40 0 45.5 -5.5t5.5 -45.5v-62q0 -40 -5.5 -45.5t-45.5 -5.5h-330q-32 0 -36.5 -4.5t-4.5 -36.5v-205q0 -32 4.5 -36.5t36.5 -4.5h287q40 0 45.5 -5.5t3.5 -45.5v-53q-1 -40 -7 -45.5t-46 -5.5 h-283q-32 0 -36.5 -4.5t-4.5 -36.5v-252q0 -32 4.5 -36.5t36.5 -4.5h338q40 0 45.5 -5.5t5.5 -45.5v-64q0 -40 -5.5 -45.5t-45.5 -5.5zM340 1208h-86h-22t-12 1.5t-6.5 3t2.5 7t7 10t15 15.5l122 135q26 27 37.5 32t48.5 5h76q37 0 48.5 -5t37.5 -32l123 -135 q11 -11 15 -15.5t7 -10t2.5 -7t-6.5 -3t-12 -1.5h-22h-84q-38 0 -48.5 5t-35.5 34l-35 43q-20 25 -26.5 25t-26.5 -25l-35 -43q-25 -29 -35.5 -34t-48.5 -5z" />
<glyph unicode="&#xcb;" horiz-adv-x="921" d="M774 0h-557q-40 0 -45.5 5.5t-5.5 45.5v1004q0 40 5.5 45.5t45.5 5.5h549q40 0 45.5 -5.5t5.5 -45.5v-62q0 -40 -5.5 -45.5t-45.5 -5.5h-330q-32 0 -36.5 -4.5t-4.5 -36.5v-205q0 -32 4.5 -36.5t36.5 -4.5h287q40 0 45.5 -5.5t3.5 -45.5v-53q-1 -40 -7 -45.5t-46 -5.5 h-283q-32 0 -36.5 -4.5t-4.5 -36.5v-252q0 -32 4.5 -36.5t36.5 -4.5h338q40 0 45.5 -5.5t5.5 -45.5v-64q0 -40 -5.5 -45.5t-45.5 -5.5zM449 1333q0 -46 -35 -79t-82 -33q-50 0 -84.5 33t-34.5 79q0 48 34 81.5t85 33.5q47 0 82 -34t35 -81zM776 1333q0 -46 -35 -79t-82 -33 q-50 0 -84 33t-34 79q0 48 34 81.5t84 33.5q47 0 82 -34t35 -81z" />
<glyph unicode="&#xcc;" horiz-adv-x="593" d="M436 0h-297q-40 0 -45.5 5.5t-5.5 45.5v33q0 32 4.5 37t36.5 8l2 2q32 3 36.5 8t4.5 37v750q0 32 -4 37.5t-35 9.5h-4q-32 4 -36.5 9t-4.5 36v37q0 40 5.5 45.5t45.5 5.5h297q40 0 45.5 -5.5t5.5 -45.5v-37q0 -32 -4.5 -37t-36.5 -8l-2 -2q-32 -3 -36.5 -8t-4.5 -37v-750 q0 -31 4.5 -36t36.5 -9h5q30 -4 34 -9t4 -38v-33q0 -40 -5.5 -45.5t-45.5 -5.5zM326 1204h-50q-38 0 -47.5 5.5t-29.5 37.5l-90 148q-20 32 -17 37.5t41 5.5h105q40 0 48 -5t21 -42l51 -140q14 -37 10.5 -42t-42.5 -5z" />
<glyph unicode="&#xcd;" horiz-adv-x="593" d="M451 0h-297q-40 0 -46 6t-6 45v33q0 32 4.5 37t36.5 8l2 2q32 3 36.5 8t4.5 37v750q0 32 -4 37.5t-35 9.5h-4q-32 4 -36.5 9t-4.5 36v37q0 39 6 45t46 6h297q40 0 45.5 -5.5t5.5 -45.5v-37q0 -32 -4.5 -37t-36.5 -8l-2 -2q-32 -3 -36.5 -8t-4.5 -37v-750q0 -31 4.5 -36 t36.5 -9h4q31 -4 35 -9.5t4 -37.5v-33q0 -40 -5.5 -45.5t-45.5 -5.5zM334 1204h-49q-40 0 -43.5 5t10.5 42l51 140q13 36 21.5 41.5t48.5 5.5h104q39 0 42 -5.5t-17 -37.5l-90 -148q-20 -32 -30 -37.5t-48 -5.5z" />
<glyph unicode="&#xce;" horiz-adv-x="593" d="M420 0h-297q-40 0 -45.5 5.5t-5.5 45.5v33q0 32 4.5 37t36.5 8l2 2q32 3 36.5 8t4.5 37v750q0 32 -4 37.5t-35 9.5h-4q-32 4 -36.5 9t-4.5 36v37q0 40 5.5 45.5t45.5 5.5h297q40 0 45.5 -5.5t5.5 -45.5v-37q0 -32 -4.5 -37t-36.5 -8l-2 -2q-32 -3 -36.5 -8t-4.5 -37v-750 q0 -31 4.5 -36t36.5 -9h4q31 -4 35 -9.5t4 -37.5v-33q0 -40 -5.5 -45.5t-45.5 -5.5zM127 1204h-86h-22t-12 1.5t-6.5 3t2.5 7t7 10t15 15.5l122 135q26 27 37.5 32t48.5 5h76q37 0 48.5 -5t37.5 -32l123 -135q11 -11 15 -15.5t7 -10t2.5 -7t-6.5 -3t-12 -1.5h-22h-84 q-38 0 -48.5 5t-35.5 34l-35 41q-22 25 -26.5 25t-26.5 -25l-35 -41q-25 -29 -35.5 -34t-48.5 -5z" />
<glyph unicode="&#xcf;" horiz-adv-x="593" d="M436 0h-297q-40 0 -45.5 5.5t-5.5 45.5v33q0 32 4.5 37t36.5 8l2 2q32 3 36.5 8t4.5 37v750q0 32 -4 37.5t-35 9.5h-4q-32 4 -36.5 9t-4.5 36v37q0 40 5.5 45.5t45.5 5.5h297q40 0 45.5 -5.5t5.5 -45.5v-37q0 -32 -4.5 -37t-36.5 -8l-2 -2q-32 -3 -36.5 -8t-4.5 -37v-750 q0 -31 4.5 -36t36.5 -9h5q30 -4 34 -9t4 -38v-33q0 -40 -5.5 -45.5t-45.5 -5.5zM567 1333q0 -46 -34.5 -79t-81.5 -33q-50 0 -84.5 33t-34.5 79q0 48 34 81.5t85 33.5q47 0 81.5 -34t34.5 -81zM240 1333q0 -46 -35 -79t-82 -33q-50 0 -84.5 33t-34.5 79q0 48 34 81.5 t85 33.5q47 0 82 -34t35 -81z" />
<glyph unicode="&#xd0;" horiz-adv-x="1087" d="M125 487h-12q-40 0 -46 6t-6 46v55q0 39 6 45t46 6l12 2q32 0 36.5 4.5t4.5 36.5v369q0 40 5.5 46t45.5 9q122 12 307 12q69 0 134 -14.5t133.5 -54t118.5 -100.5t82 -163t32 -233q0 -134 -30.5 -237.5t-79.5 -167t-119 -103.5t-141 -55.5t-152 -15.5q-120 0 -285 20 q-40 4 -45.5 10.5t-5.5 46.5v389q0 32 -4.5 36.5t-36.5 4.5zM434 152q62 -5 105 -5q70 0 120 34.5t76 95t37.5 128t11.5 148.5q0 61 -7.5 114.5t-28.5 108t-54 93t-88.5 63t-128.5 24.5q-31 0 -45 -2q-31 -1 -35 -5.5t-4 -35.5v-221q0 -32 4.5 -36.5t36.5 -4.5l78 2 q40 0 45.5 -5.5t5.5 -45.5v-63q0 -40 -6 -46t-45 -6h-78q-32 0 -36.5 -4.5t-4.5 -36.5v-249q0 -31 4.5 -36.5t36.5 -8.5z" />
<glyph unicode="&#xd1;" horiz-adv-x="1157" d="M326 0h-119q-40 0 -45.5 5.5t-5.5 45.5v1004q0 40 5.5 45.5t45.5 5.5h184q40 0 48.5 -5.5t25.5 -41.5l338 -727q5 -8 7 -9t11 -1h4q9 0 11 1.5t2 10.5l-17 721q-2 40 3.5 45.5t45.5 5.5h123q40 0 45.5 -5.5t5.5 -45.5v-1004q0 -40 -5.5 -45.5t-45.5 -5.5h-188 q-40 0 -48.5 5.5t-25.5 41.5l-336 727q-5 9 -7 10.5t-11 1.5h-4q-11 0 -13 -1.5t-2 -10.5l17 -723q2 -40 -3.5 -45.5t-45.5 -5.5zM485 1292q-30 0 -67 -41l-7 -7q-20 -20 -25 -17q-5 2 -19 26l-2 4l-5 9q-17 29 -17 37.5t19 37.5q60 89 127 89q40 0 78.5 -20t70 -40 t56.5 -20q33 0 80 47q23 25 28.5 24t22.5 -30l4 -7q17 -28 17 -35.5t-17 -35.5q-57 -101 -139 -101q-44 0 -83 20t-69 40t-53 20z" />
<glyph unicode="&#xd2;" horiz-adv-x="1179" d="M1122 555q0 -168 -55 -296t-168.5 -202.5t-273.5 -74.5t-273.5 74.5t-168 202.5t-54.5 296q0 167 55 294t168.5 201t272.5 74t272.5 -74t169 -201t55.5 -294zM383 557q0 -87 10.5 -155t36.5 -128.5t75.5 -93.5t121.5 -33t121.5 33t75 93.5t36 128.5t10.5 155 q0 404 -243 404q-244 0 -244 -404zM649 1204h-49q-38 0 -48 5.5t-30 37.5l-90 148q-20 32 -17 37.5t42 5.5h104q40 0 48.5 -5.5t21.5 -41.5l51 -140q14 -37 10.5 -42t-43.5 -5z" />
<glyph unicode="&#xd3;" horiz-adv-x="1179" d="M1122 555q0 -168 -55 -296t-168.5 -202.5t-273.5 -74.5t-273.5 74.5t-168 202.5t-54.5 296q0 167 55 294t168.5 201t272.5 74t272.5 -74t169 -201t55.5 -294zM383 557q0 -87 10.5 -155t36.5 -128.5t75.5 -93.5t121.5 -33t121.5 33t75 93.5t36 128.5t10.5 155 q0 404 -243 404q-244 0 -244 -404zM629 1204h-49q-40 0 -43.5 5t10.5 42l51 140q13 36 21.5 41.5t48.5 5.5h104q38 0 41.5 -5.5t-16.5 -37.5l-90 -148q-20 -32 -30 -37.5t-48 -5.5z" />
<glyph unicode="&#xd4;" horiz-adv-x="1179" d="M1122 555q0 -168 -55 -296t-168.5 -202.5t-273.5 -74.5t-273.5 74.5t-168 202.5t-54.5 296q0 167 55 294t168.5 201t272.5 74t272.5 -74t169 -201t55.5 -294zM383 557q0 -87 10.5 -155t36.5 -128.5t75.5 -93.5t121.5 -33t121.5 33t75 93.5t36 128.5t10.5 155 q0 404 -243 404q-244 0 -244 -404zM477 1208h-86h-22t-12 1.5t-6.5 3t2.5 7t7 10t15 15.5l123 135q26 27 37.5 32t48.5 5h75q37 0 48.5 -5t37.5 -32l123 -135q11 -11 15 -15.5t7 -10t2.5 -7t-6.5 -3t-12 -1.5h-22h-84q-38 0 -48.5 5t-35.5 34l-35 43q-20 25 -26.5 25 t-26.5 -25l-35 -43q-25 -29 -35.5 -34t-48.5 -5z" />
<glyph unicode="&#xd5;" horiz-adv-x="1179" d="M1122 555q0 -168 -55 -296t-168.5 -202.5t-273.5 -74.5t-273.5 74.5t-168 202.5t-54.5 296q0 167 55 294t168.5 201t272.5 74t272.5 -74t169 -201t55.5 -294zM383 557q0 -87 10.5 -155t36.5 -128.5t75.5 -93.5t121.5 -33t121.5 33t75 93.5t36 128.5t10.5 155 q0 404 -243 404q-244 0 -244 -404zM512 1292q-31 0 -68 -41l-7 -7q-20 -20 -25 -17q-5 2 -19 26l-2 4l-4 9q-17 29 -17 37.5t19 37.5q60 89 127 89q40 0 78.5 -20t70 -40t56.5 -20q33 0 80 47q23 25 28.5 24t22.5 -30l4 -7q17 -28 17 -35.5t-17 -35.5q-57 -101 -139 -101 q-44 0 -83 20t-69 40t-53 20z" />
<glyph unicode="&#xd6;" horiz-adv-x="1179" d="M1122 555q0 -168 -55 -296t-168.5 -202.5t-273.5 -74.5t-273.5 74.5t-168 202.5t-54.5 296q0 167 55 294t168.5 201t272.5 74t272.5 -74t169 -201t55.5 -294zM383 557q0 -87 10.5 -155t36.5 -128.5t75.5 -93.5t121.5 -33t121.5 33t75 93.5t36 128.5t10.5 155 q0 404 -243 404q-244 0 -244 -404zM580 1333q0 -46 -35 -79t-82 -33q-50 0 -84.5 33t-34.5 79q0 48 34 81.5t85 33.5q47 0 82 -34t35 -81zM907 1333q0 -46 -34.5 -79t-81.5 -33q-50 0 -84.5 33t-34.5 79q0 48 34 81.5t85 33.5q47 0 81.5 -34t34.5 -81z" />
<glyph unicode="&#xd7;" horiz-adv-x="942" d="M422 211l-195 -197q-28 -28 -34 -29q-8 -1 -30 21q-5 6 -7 8l-56 56q-28 29 -27.5 36.5t29.5 36.5l193 195q23 23 23 28.5t-23 28.5l-195 195q-29 29 -29 37t29 37l54 55q29 29 36.5 29t36.5 -29l195 -197q23 -23 28.5 -23t28.5 23l197 197q29 29 37 29t37 -29l53 -55 q29 -29 29 -37t-29 -37l-197 -195q-23 -23 -23 -28.5t23 -28.5l197 -195q29 -29 29 -36.5t-29 -36.5l-53 -56q-29 -29 -37 -29t-37 29l-197 197q-23 23 -28.5 23t-28.5 -23z" />
<glyph unicode="&#xd8;" horiz-adv-x="1179" d="M395 -188h-114q-40 0 -43.5 5.5t8.5 43.5l61 166q11 31 9 38t-25 29q-172 153 -172 461q0 167 55 294t168 201t272 74q34 0 48 -2q32 -2 38.5 2t16.5 35l35 94q13 37 21 42t48 5h113q40 0 43.5 -5t-10.5 -42l-62 -166q-10 -31 -8 -37.5t27 -27.5q93 -74 140.5 -194 t47.5 -273q0 -257 -129.5 -415t-368.5 -158q-43 0 -63 2q-33 3 -39 -0.5t-16 -34.5l-33 -88q-12 -38 -20 -43.5t-48 -5.5zM590 150q15 -3 26 -3q244 0 244 410q0 131 -33 229q-8 21 -11.5 26t-7 0t-11.5 -26l-222 -614q-5 -19 -2 -20q1 -1 17 -2zM616 961q-243 0 -243 -404 q0 -127 22 -211q7 -31 12 -31t15 29l219 604v1q3 9 0 11q-1 0 -6 1h-2h-17z" />
<glyph unicode="&#xd9;" horiz-adv-x="1150" d="M1036 377q0 -107 -31.5 -185.5t-91 -125t-137 -69t-176.5 -22.5q-98 0 -175 22.5t-135.5 69t-90 125t-31.5 185.5v678q0 40 5.5 45.5t45.5 5.5h129q40 0 45.5 -5.5t5.5 -45.5v-672q0 -240 203 -240q104 0 153.5 60t49.5 180v672q0 40 5.5 45.5t45.5 5.5h129 q40 0 45.5 -5.5t5.5 -45.5v-678zM641 1204h-49q-38 0 -48 5.5t-30 37.5l-90 148q-20 32 -17 37.5t42 5.5h104q40 0 48.5 -5.5t21.5 -41.5l51 -140q14 -37 10.5 -42t-43.5 -5z" />
<glyph unicode="&#xda;" horiz-adv-x="1150" d="M1036 377q0 -107 -31.5 -185.5t-91 -125t-137 -69t-176.5 -22.5q-98 0 -175 22.5t-135.5 69t-90 125t-31.5 185.5v678q0 40 5.5 45.5t45.5 5.5h129q40 0 45.5 -5.5t5.5 -45.5v-672q0 -240 203 -240q104 0 153.5 60t49.5 180v672q0 40 5.5 45.5t45.5 5.5h129 q40 0 45.5 -5.5t5.5 -45.5v-678zM614 1204h-49q-40 0 -43.5 5t10.5 42l52 140q13 37 21 42t48 5h105q38 0 41 -5.5t-17 -37.5l-90 -148q-20 -32 -30 -37.5t-48 -5.5z" />
<glyph unicode="&#xdb;" horiz-adv-x="1150" d="M1036 377q0 -107 -31.5 -185.5t-91 -125t-137 -69t-176.5 -22.5q-98 0 -175 22.5t-135.5 69t-90 125t-31.5 185.5v678q0 40 5.5 45.5t45.5 5.5h129q40 0 45.5 -5.5t5.5 -45.5v-672q0 -240 203 -240q104 0 153.5 60t49.5 180v672q0 40 5.5 45.5t45.5 5.5h129 q40 0 45.5 -5.5t5.5 -45.5v-678zM457 1208h-86q-39 0 -41 4.5t24 32.5l123 135q26 27 37.5 32t48.5 5h76q37 0 48.5 -5t37.5 -32l123 -135q26 -28 24 -32.5t-41 -4.5h-83q-38 0 -48.5 5t-35.5 34l-35 43q-20 25 -27 25t-27 -25l-34 -43q-25 -29 -35.5 -34t-48.5 -5z" />
<glyph unicode="&#xdc;" horiz-adv-x="1150" d="M1036 377q0 -107 -31.5 -185.5t-91 -125t-137 -69t-176.5 -22.5q-98 0 -175 22.5t-135.5 69t-90 125t-31.5 185.5v678q0 40 5.5 45.5t45.5 5.5h129q40 0 45.5 -5.5t5.5 -45.5v-672q0 -240 203 -240q104 0 153.5 60t49.5 180v672q0 40 5.5 45.5t45.5 5.5h129 q40 0 45.5 -5.5t5.5 -45.5v-678zM557 1333q0 -46 -35 -79t-82 -33q-50 0 -84 33t-34 79q0 48 34 81.5t84 33.5q47 0 82 -34t35 -81zM885 1333q0 -46 -35 -79t-82 -33q-50 0 -84.5 33t-34.5 79q0 48 34 81.5t85 33.5q47 0 82 -34t35 -81z" />
<glyph unicode="&#xdd;" horiz-adv-x="1087" d="M635 0h-133q-40 0 -45.5 5.5t-5.5 45.5v301q0 39 -19 78l-321 631q-17 35 -14.5 40t42.5 5h148q40 0 48 -5t23 -42l193 -426q3 -8 5 -9t11 -1h4q7 0 9 0.5t4 2.5t4 7l194 426q15 36 23.5 41.5t48.5 5.5h145q40 0 43 -5t-14 -40l-323 -631q-19 -39 -19 -78v-301 q0 -40 -5.5 -45.5t-45.5 -5.5zM592 1204h-49q-40 0 -43.5 5t10.5 42l51 140q13 36 21.5 41.5t48.5 5.5h104q39 0 42 -5.5t-17 -37.5l-90 -148q-20 -32 -30 -37.5t-48 -5.5z" />
<glyph unicode="&#xde;" horiz-adv-x="931" d="M276 -373h-114q-40 0 -45.5 5.5t-5.5 45.5v1135q0 40 5.5 45.5t45.5 5.5h86q40 0 46.5 -5.5t10.5 -45.5l8 -59q4 -30 9 -32.5t34 9.5q98 43 193 43q42 0 81 -7t82.5 -28t74.5 -54t52 -91.5t21 -134.5q0 -81 -29.5 -148t-74 -113t-113.5 -85t-131.5 -62.5t-144.5 -46.5 q-31 -7 -35 -13t-4 -38v-275q0 -39 -6 -45t-46 -6zM324 549v-361q0 -32 3.5 -34.5t34.5 8.5q37 14 65.5 27t68.5 38t66.5 52t45.5 67.5t19 85.5q0 189 -160 189q-36 0 -105 -19q-30 -9 -34 -15t-4 -38z" />
<glyph unicode="&#xdf;" horiz-adv-x="1007" d="M977 274q0 -90 -49.5 -158.5t-121.5 -101t-151 -32.5q-101 0 -206 28q-36 12 -41 20t0 46l8 63q6 39 12.5 43t44.5 -8q111 -33 170 -33q121 0 121 92q0 31 -28 56.5t-69.5 42.5t-90 42t-90 52.5t-69.5 77t-28 112.5q0 39 18 77.5t44 71t52 64.5t44 70t18 76q0 34 -34 69 t-87 35q-127 0 -127 -227v-801q0 -40 -5.5 -45.5t-45.5 -5.5h-112q-40 0 -46 6t-6 45v842q0 73 22.5 132t58.5 97t83 63.5t94 36.5t93 11q132 0 220.5 -82.5t88.5 -183.5q0 -45 -24.5 -92.5t-53.5 -80t-53.5 -72.5t-24.5 -73t27.5 -59.5t68.5 -43.5t89.5 -41t89.5 -50 t68.5 -73t27.5 -108z" />
<glyph unicode="&#xe0;" horiz-adv-x="905" d="M512 39q-87 -59 -195 -59q-102 0 -163.5 65.5t-61.5 173.5q0 64 26 111.5t71 73.5t96.5 38.5t111.5 12.5q43 0 95 -9q30 -5 33 -1t3 32v82q0 117 -151 117q-67 0 -172 -39q-37 -14 -43 -10.5t-12 41.5l-5 34q-6 38 -1.5 46.5t40.5 21.5q127 53 258 53q123 0 215.5 -64 t92.5 -179v-430q0 -29 3.5 -32.5t32.5 -0.5l5 2q29 3 34 -0.5t11 -32.5l4 -14q8 -34 4.5 -41.5t-35.5 -20.5q-75 -30 -139 -30q-68 0 -105 51q-19 22 -23.5 22.5t-29.5 -14.5zM305 219q0 -45 29 -68.5t78 -23.5q34 0 80 16q28 9 32 15.5t4 38.5v102q0 31 -4.5 35.5 t-36.5 3.5q-182 -9 -182 -119zM516 907h-49q-38 0 -48 5.5t-30 37.5l-90 148q-20 32 -16.5 37.5t41.5 5.5h104q40 0 48.5 -5.5t21.5 -41.5l51 -140q14 -37 10.5 -42t-43.5 -5z" />
<glyph unicode="&#xe1;" horiz-adv-x="905" d="M512 39q-87 -59 -195 -59q-102 0 -163.5 65.5t-61.5 173.5q0 64 26 111.5t71 73.5t96.5 38.5t111.5 12.5q43 0 95 -9q30 -5 33 -1t3 32v82q0 117 -151 117q-67 0 -172 -39q-37 -14 -43 -10.5t-12 41.5l-5 34q-6 38 -1.5 46.5t40.5 21.5q127 53 258 53q123 0 215.5 -64 t92.5 -179v-430q0 -29 3.5 -32.5t32.5 -0.5l5 2q29 3 34 -0.5t11 -32.5l4 -14q8 -34 4.5 -41.5t-35.5 -20.5q-75 -30 -139 -30q-68 0 -105 51q-19 22 -23.5 22.5t-29.5 -14.5zM305 219q0 -45 29 -68.5t78 -23.5q34 0 80 16q28 9 32 15.5t4 38.5v102q0 31 -4.5 35.5 t-36.5 3.5q-182 -9 -182 -119zM461 907h-49q-40 0 -43.5 5t10.5 42l51 140q13 36 21.5 41.5t48.5 5.5h104q38 0 41.5 -5.5t-16.5 -37.5l-90 -148q-20 -32 -30 -37.5t-48 -5.5z" />
<glyph unicode="&#xe2;" horiz-adv-x="905" d="M512 39q-87 -59 -195 -59q-102 0 -163.5 65.5t-61.5 173.5q0 64 26 111.5t71 73.5t96.5 38.5t111.5 12.5q43 0 95 -9q30 -5 33 -1t3 32v82q0 117 -151 117q-67 0 -172 -39q-37 -14 -43 -10.5t-12 41.5l-5 34q-6 38 -1.5 46.5t40.5 21.5q127 53 258 53q123 0 215.5 -64 t92.5 -179v-430q0 -29 3.5 -32.5t32.5 -0.5l5 2q29 3 34 -0.5t11 -32.5l4 -14q8 -34 4.5 -41.5t-35.5 -20.5q-75 -30 -139 -30q-68 0 -105 51q-19 22 -23.5 22.5t-29.5 -14.5zM305 219q0 -45 29 -68.5t78 -23.5q34 0 80 16q28 9 32 15.5t4 38.5v102q0 31 -4.5 35.5 t-36.5 3.5q-182 -9 -182 -119zM301 911h-86h-22t-12 1.5t-6.5 3t2.5 7t7 10t15 15.5l123 135q26 27 37.5 32t48.5 5h75q37 0 48.5 -5t37.5 -32l123 -135q11 -11 15 -15.5t7 -10t2.5 -7t-6.5 -3t-12 -1.5h-22h-84q-38 0 -48.5 5t-35.5 34l-35 43q-20 25 -26.5 25t-26.5 -25 l-35 -43q-25 -29 -35.5 -34t-48.5 -5z" />
<glyph unicode="&#xe3;" horiz-adv-x="905" d="M512 39q-87 -59 -195 -59q-102 0 -163.5 65.5t-61.5 173.5q0 64 26 111.5t71 73.5t96.5 38.5t111.5 12.5q43 0 95 -9q30 -5 33 -1t3 32v82q0 117 -151 117q-67 0 -172 -39q-37 -14 -43 -10.5t-12 41.5l-5 34q-6 38 -1.5 46.5t40.5 21.5q127 53 258 53q123 0 215.5 -64 t92.5 -179v-430q0 -29 3.5 -32.5t32.5 -0.5l5 2q29 3 34 -0.5t11 -32.5l4 -14q8 -34 4.5 -41.5t-35.5 -20.5q-75 -30 -139 -30q-68 0 -105 51q-19 22 -23.5 22.5t-29.5 -14.5zM305 219q0 -45 29 -68.5t78 -23.5q34 0 80 16q28 9 32 15.5t4 38.5v102q0 31 -4.5 35.5 t-36.5 3.5q-182 -9 -182 -119zM324 995q-31 0 -68 -41q-25 -25 -30.5 -24.5t-22.5 31.5l-4 8q-17 29 -17 37.5t19 37.5q60 89 127 89q40 0 78 -20t69.5 -40t56.5 -20q33 0 80 47q23 25 29 24t23 -30l4 -7q17 -28 17 -35.5t-17 -35.5q-57 -101 -140 -101q-44 0 -82.5 20 t-69 40t-52.5 20z" />
<glyph unicode="&#xe4;" horiz-adv-x="905" d="M512 39q-87 -59 -195 -59q-102 0 -163.5 65.5t-61.5 173.5q0 64 26 111.5t71 73.5t96.5 38.5t111.5 12.5q43 0 95 -9q30 -5 33 -1t3 32v82q0 117 -151 117q-67 0 -172 -39q-37 -14 -43 -10.5t-12 41.5l-5 34q-6 38 -1.5 46.5t40.5 21.5q127 53 258 53q123 0 215.5 -64 t92.5 -179v-430q0 -29 3.5 -32.5t32.5 -0.5l5 2q29 3 34 -0.5t11 -32.5l4 -14q8 -34 4.5 -41.5t-35.5 -20.5q-75 -30 -139 -30q-68 0 -105 51q-19 22 -23.5 22.5t-29.5 -14.5zM305 219q0 -45 29 -68.5t78 -23.5q34 0 80 16q28 9 32 15.5t4 38.5v102q0 31 -4.5 35.5 t-36.5 3.5q-182 -9 -182 -119zM397 1036q0 -46 -34.5 -79t-81.5 -33q-50 0 -84.5 33t-34.5 79q0 48 34 81.5t85 33.5q47 0 81.5 -34t34.5 -81zM725 1036q0 -46 -35 -79t-82 -33q-50 0 -84.5 33t-34.5 79q0 48 34 81.5t85 33.5q47 0 82 -34t35 -81z" />
<glyph unicode="&#xe5;" horiz-adv-x="905" d="M512 39q-87 -59 -195 -59q-102 0 -163.5 65.5t-61.5 173.5q0 64 26 111.5t71 73.5t96.5 38.5t111.5 12.5q43 0 95 -9q30 -5 33 -1t3 32v82q0 117 -151 117q-67 0 -172 -39q-37 -14 -43 -10.5t-12 41.5l-5 34q-6 38 -1.5 46.5t40.5 21.5q127 53 258 53q123 0 215.5 -64 t92.5 -179v-430q0 -29 3.5 -32.5t32.5 -0.5l5 2q29 3 34 -0.5t11 -32.5l4 -14q8 -34 4.5 -41.5t-35.5 -20.5q-75 -30 -139 -30q-68 0 -105 51q-19 22 -23.5 22.5t-29.5 -14.5zM305 219q0 -45 29 -68.5t78 -23.5q34 0 80 16q28 9 32 15.5t4 38.5v102q0 31 -4.5 35.5 t-36.5 3.5q-182 -9 -182 -119zM606 1042q0 -61 -44 -103t-107 -42q-64 0 -109 41.5t-45 103.5t45 104t109 42t107.5 -41.5t43.5 -104.5zM410 1044q0 -19 14 -33t33 -14t32 14t13 33q0 20 -13 34t-32 14t-33 -14t-14 -34z" />
<glyph unicode="&#xe6;" horiz-adv-x="1210" d="M575 53q-168 -78 -299 -78q-101 0 -163 65.5t-62 174.5q0 64 26.5 111t72.5 73t97.5 38t110.5 12q50 0 97 -9q32 -5 36.5 -1t4.5 36v80q0 55 -40 85t-118 30q-69 0 -174 -39q-37 -14 -43 -10.5t-12 41.5l-5 34q-6 40 -1.5 48.5t40.5 21.5q127 53 263 53q104 0 184 -47 q26 -13 33.5 -13t33.5 15q65 45 172 45q163 0 254 -93.5t91 -274.5q0 -8 -1.5 -24t-1.5 -24q-3 -15 -8 -22l-2 -4q-5 -9 -7 -10.5t-11 -1.5h-395q-31 0 -35.5 -4.5t-1.5 -36.5q12 -103 53.5 -148t118.5 -45q82 0 186 31q38 11 44.5 7t10.5 -44l4 -33q5 -38 0 -46t-41 -21 q-127 -50 -258 -50q-110 0 -190 70q-21 20 -29.5 21t-34.5 -13zM264 215q0 -44 31 -69t80 -25q41 0 84 16q29 10 33 16t4 37v127q0 11 -2 13t-13 2h-20q-88 0 -142.5 -28.5t-54.5 -88.5zM836 686q-26 0 -43.5 -5t-36.5 -20.5t-30 -51.5t-15 -93q-3 -32 1.5 -36.5t35.5 -2.5 l163 6q32 1 36 6t1 37q-12 160 -112 160z" />
<glyph unicode="&#xe7;" horiz-adv-x="739" d="M571 -164q0 -53 -34 -81.5t-91 -28.5q-63 0 -114 34q-15 11 -18 16t-3 25v11q0 23 2.5 25.5t26.5 0.5h39q32 -1 35.5 3t-4.5 36q-10 40 -39 84q-17 20 -21 31q-123 23 -196.5 123t-73.5 276q0 215 105 322.5t290 107.5q43 0 137 -12q40 -8 44 -13.5t-3 -45.5l-8 -39 q-7 -40 -14 -44.5t-47 1.5q-41 6 -76 6q-105 0 -156 -61t-51 -210q0 -270 203 -270q55 0 117 12q38 8 44 3.5t9 -42.5q2 -6 2 -18q3 -39 -1.5 -46t-39.5 -19q-65 -23 -148 -35q5 -3 23 -25q61 -69 61 -127z" />
<glyph unicode="&#xe8;" horiz-adv-x="827" d="M676 29q-119 -47 -270 -49q-152 -2 -253.5 111.5t-101.5 311.5q0 199 100.5 309.5t264.5 110.5q163 0 254.5 -93.5t91.5 -274.5q0 -8 -1 -23.5t-1 -23.5q-3 -17 -8 -23l-2 -4q-4 -9 -7 -10.5t-12 -1.5h-414q-32 0 -35.5 -4t-0.5 -37q15 -193 188 -193q82 0 186 31 q38 11 45 6.5t13 -43.5l4 -33q5 -38 0 -46t-41 -21zM422 690q-28 0 -47.5 -5t-41 -21t-33.5 -52t-15 -92q-3 -32 1.5 -36.5t35.5 -2.5l176 6q32 1 36 6t1 37q-6 81 -35.5 120.5t-77.5 39.5zM440 907h-49q-38 0 -48 5.5t-30 37.5l-90 148q-20 32 -16.5 37.5t41.5 5.5h104 q40 0 48.5 -5.5t21.5 -41.5l51 -140q14 -37 10.5 -42t-43.5 -5z" />
<glyph unicode="&#xe9;" horiz-adv-x="827" d="M676 29q-119 -47 -270 -49q-152 -2 -253.5 111.5t-101.5 311.5q0 199 100.5 309.5t264.5 110.5q163 0 254.5 -93.5t91.5 -274.5q0 -8 -1 -23.5t-1 -23.5q-3 -17 -8 -23l-2 -4q-4 -9 -7 -10.5t-12 -1.5h-414q-32 0 -35.5 -4t-0.5 -37q15 -193 188 -193q82 0 186 31 q38 11 45 6.5t13 -43.5l4 -33q5 -38 0 -46t-41 -21zM422 690q-28 0 -47.5 -5t-41 -21t-33.5 -52t-15 -92q-3 -32 1.5 -36.5t35.5 -2.5l176 6q32 1 36 6t1 37q-6 81 -35.5 120.5t-77.5 39.5zM463 907h-49q-40 0 -43.5 5t10.5 42l51 140q13 36 21.5 41.5t48.5 5.5h104 q39 0 42 -5.5t-17 -37.5l-90 -148q-20 -32 -30 -37.5t-48 -5.5z" />
<glyph unicode="&#xea;" horiz-adv-x="827" d="M676 29q-119 -47 -270 -49q-152 -2 -253.5 111.5t-101.5 311.5q0 199 100.5 309.5t264.5 110.5q163 0 254.5 -93.5t91.5 -274.5q0 -8 -1 -23.5t-1 -23.5q-3 -17 -8 -23l-2 -4q-4 -9 -7 -10.5t-12 -1.5h-414q-32 0 -35.5 -4t-0.5 -37q15 -193 188 -193q82 0 186 31 q38 11 45 6.5t13 -43.5l4 -33q5 -38 0 -46t-41 -21zM422 690q-28 0 -47.5 -5t-41 -21t-33.5 -52t-15 -92q-3 -32 1.5 -36.5t35.5 -2.5l176 6q32 1 36 6t1 37q-6 81 -35.5 120.5t-77.5 39.5zM270 911h-86h-22t-12 1.5t-6.5 3t2.5 7t7 10t15 15.5l123 135q26 27 37.5 32 t48.5 5h76q37 0 48.5 -5t37.5 -32l123 -135q26 -28 24 -32.5t-41 -4.5h-84q-38 0 -48.5 5t-35.5 34l-35 43q-20 25 -26.5 25t-26.5 -25l-35 -43q-25 -29 -35.5 -34t-48.5 -5z" />
<glyph unicode="&#xeb;" horiz-adv-x="827" d="M676 29q-119 -47 -270 -49q-152 -2 -253.5 111.5t-101.5 311.5q0 199 100.5 309.5t264.5 110.5q163 0 254.5 -93.5t91.5 -274.5q0 -8 -1 -23.5t-1 -23.5q-3 -17 -8 -23l-2 -4q-4 -9 -7 -10.5t-12 -1.5h-414q-32 0 -35.5 -4t-0.5 -37q15 -193 188 -193q82 0 186 31 q38 11 45 6.5t13 -43.5l4 -33q5 -38 0 -46t-41 -21zM422 690q-28 0 -47.5 -5t-41 -21t-33.5 -52t-15 -92q-3 -32 1.5 -36.5t35.5 -2.5l176 6q32 1 36 6t1 37q-6 81 -35.5 120.5t-77.5 39.5zM367 1036q0 -46 -35 -79t-82 -33q-50 0 -84.5 33t-34.5 79q0 48 34 81.5t85 33.5 q47 0 82 -34t35 -81zM694 1036q0 -46 -34.5 -79t-81.5 -33q-50 0 -84.5 33t-34.5 79q0 48 34 81.5t85 33.5q47 0 81.5 -34t34.5 -81z" />
<glyph unicode="&#xec;" horiz-adv-x="444" d="M291 0h-111q-40 0 -45.5 5.5t-5.5 45.5v541q0 32 -4.5 37.5t-36.5 11.5l-8 2q-37 7 -42 13.5t-5 43.5v15q0 40 5.5 46t45.5 9l207 14q40 3 45.5 -2t5.5 -45v-686q0 -40 -5.5 -45.5t-45.5 -5.5zM262 907h-49q-38 0 -48 5.5t-30 37.5l-90 148q-20 32 -16.5 37.5t41.5 5.5 h104q40 0 48.5 -5.5t21.5 -41.5l51 -140q14 -37 10.5 -42t-43.5 -5z" />
<glyph unicode="&#xed;" horiz-adv-x="444" d="M307 0h-110q-40 0 -46 6t-6 45v541q0 32 -4.5 37.5t-36.5 11.5l-8 2q-37 7 -42 13.5t-5 43.5v15q0 40 5.5 46t45.5 9l207 14q40 3 45.5 -2t5.5 -45v-686q0 -40 -5.5 -45.5t-45.5 -5.5zM242 907h-49q-40 0 -43.5 5t10.5 42l51 140q13 36 21.5 41.5t48.5 5.5h104 q39 0 42 -5.5t-17 -37.5l-91 -148q-20 -32 -29.5 -37.5t-47.5 -5.5z" />
<glyph unicode="&#xee;" horiz-adv-x="444" d="M276 0h-110q-40 0 -45.5 5.5t-5.5 45.5v541q0 32 -4.5 37.5t-36.5 11.5l-8 2q-37 8 -42.5 14t-5.5 43v15q0 40 6 46t46 9l206 14q40 3 46 -2.5t6 -44.5v-686q0 -39 -6 -45t-46 -6zM49 911h-86h-22t-12 1.5t-6.5 3t2.5 7t7 10t15 15.5l123 135q26 27 37.5 32t48.5 5h75 q37 0 48.5 -5t37.5 -32l123 -135q11 -11 15 -15.5t7 -10t2.5 -7t-6.5 -3t-12 -1.5h-22h-84q-38 0 -48.5 5t-35.5 34l-35 43q-20 25 -26.5 25t-26.5 -25l-35 -43q-25 -29 -35.5 -34t-48.5 -5z" />
<glyph unicode="&#xef;" horiz-adv-x="444" d="M297 0h-111q-40 0 -45.5 5.5t-5.5 45.5v541q0 32 -4.5 37.5t-36.5 11.5l-8 2q-37 7 -42 13.5t-5 43.5v15q0 40 5.5 46t45.5 9l207 14q40 3 45.5 -2t5.5 -45v-686q0 -40 -5.5 -45.5t-45.5 -5.5zM162 1036q0 -46 -35 -79t-82 -33q-50 0 -84.5 33t-34.5 79q0 48 34 81.5 t85 33.5q47 0 82 -34t35 -81zM489 1036q0 -46 -34.5 -79t-81.5 -33q-50 0 -84.5 33t-34.5 79q0 48 34 81.5t85 33.5q47 0 81.5 -34t34.5 -81z" />
<glyph unicode="&#xf0;" horiz-adv-x="921" d="M850 487q0 -522 -399 -522q-188 0 -299 109t-111 293q0 81 30.5 153.5t79 121.5t110 77.5t122.5 28.5q89 0 176 -35q28 -12 31.5 -9.5t-0.5 31.5q-14 108 -64 197q-15 28 -21 29.5t-32 -15.5l-149 -88q-32 -20 -37.5 -17t-5.5 42v75q0 38 5.5 48t37.5 30l41 25 q28 17 28 21.5t-26 23.5q-82 54 -177 80q-34 10 -34.5 15t30.5 22l95 51q32 17 44.5 17.5t45.5 -11.5q83 -31 153 -80q26 -19 34 -19t36 17l162 96q32 20 37.5 17t5.5 -41v-76q0 -38 -5.5 -48t-37.5 -30l-49 -29q-19 -12 -22.5 -13.5t-6 -9.5t1 -12t14.5 -20 q156 -215 156 -545zM274 375q0 -104 48.5 -173t140.5 -69q75 1 111 78.5t36 202.5q0 55 -2 84q0 29 -4.5 36t-30.5 19q-48 25 -110 25q-189 0 -189 -203z" />
<glyph unicode="&#xf1;" horiz-adv-x="942" d="M299 0h-123q-40 0 -45.5 5.5t-5.5 45.5v705q0 40 5.5 46.5t45.5 10.5l60 6q30 3 39 0t32 -24l2 -2q23 -23 31 -24.5t37 11.5q107 43 196 43q118 0 193.5 -66.5t75.5 -213.5v-492q0 -40 -5.5 -45.5t-45.5 -5.5h-123q-40 0 -46 6t-6 45v481q0 86 -30 117t-97 31 q-50 0 -100 -12q-30 -9 -34.5 -15t-4.5 -37v-565q0 -40 -5.5 -45.5t-45.5 -5.5zM365 995q-31 0 -68 -41q-25 -25 -30.5 -24.5t-22.5 31.5l-4 8q-17 29 -17 37.5t19 37.5q60 89 127 89q40 0 78 -20t69.5 -40t56.5 -20q33 0 80 47q23 25 29 24t23 -30l4 -7q17 -28 17 -35.5 t-17 -35.5q-57 -101 -140 -101q-44 0 -82.5 20t-68.5 40t-53 20z" />
<glyph unicode="&#xf2;" d="M842 403q0 -186 -108 -303.5t-288 -117.5q-179 0 -286 117.5t-107 303.5q0 185 107.5 302.5t285.5 117.5q179 0 287.5 -117.5t108.5 -302.5zM283 403q0 -282 163 -282q50 0 83.5 23.5t50 66.5t22.5 88t6 104q0 60 -6 104.5t-22 87.5t-49.5 66t-84.5 23q-40 0 -70 -16 t-47.5 -41.5t-28 -64t-14 -75.5t-3.5 -84zM479 907h-49q-38 0 -48 5.5t-30 37.5l-90 148q-20 32 -17 37.5t42 5.5h104q40 0 48.5 -5.5t21.5 -41.5l51 -140q14 -37 10.5 -42t-43.5 -5z" />
<glyph unicode="&#xf3;" d="M842 403q0 -186 -108 -303.5t-288 -117.5q-179 0 -286 117.5t-107 303.5q0 185 107.5 302.5t285.5 117.5q179 0 287.5 -117.5t108.5 -302.5zM283 403q0 -282 163 -282q50 0 83.5 23.5t50 66.5t22.5 88t6 104q0 60 -6 104.5t-22 87.5t-49.5 66t-84.5 23q-40 0 -70 -16 t-47.5 -41.5t-28 -64t-14 -75.5t-3.5 -84zM477 907h-49q-40 0 -43.5 5t10.5 42l51 140q13 36 21.5 41.5t48.5 5.5h105q38 0 41 -5.5t-17 -37.5l-90 -148q-20 -32 -30 -37.5t-48 -5.5z" />
<glyph unicode="&#xf4;" d="M842 403q0 -186 -108 -303.5t-288 -117.5q-179 0 -286 117.5t-107 303.5q0 185 107.5 302.5t285.5 117.5q179 0 287.5 -117.5t108.5 -302.5zM283 403q0 -282 163 -282q50 0 83.5 23.5t50 66.5t22.5 88t6 104q0 60 -6 104.5t-22 87.5t-49.5 66t-84.5 23q-40 0 -70 -16 t-47.5 -41.5t-28 -64t-14 -75.5t-3.5 -84zM307 911h-86h-22t-12 1.5t-6.5 3t2.5 7t7 10t15 15.5l123 135q26 27 37.5 32t48.5 5h75q37 0 48.5 -5t37.5 -32l123 -135q11 -11 15 -15.5t7 -10t2.5 -7t-6.5 -3t-12 -1.5h-22h-84q-38 0 -48.5 5t-35.5 34l-35 43q-20 25 -26.5 25 t-26.5 -25l-35 -43q-25 -29 -35.5 -34t-48.5 -5z" />
<glyph unicode="&#xf5;" d="M842 403q0 -186 -108 -303.5t-288 -117.5q-179 0 -286 117.5t-107 303.5q0 185 107.5 302.5t285.5 117.5q179 0 287.5 -117.5t108.5 -302.5zM283 403q0 -282 163 -282q50 0 83.5 23.5t50 66.5t22.5 88t6 104q0 60 -6 104.5t-22 87.5t-49.5 66t-84.5 23q-40 0 -70 -16 t-47.5 -41.5t-28 -64t-14 -75.5t-3.5 -84zM338 995q-31 0 -68 -41q-25 -25 -30.5 -24.5t-22.5 31.5l-4 8q-17 29 -17 37.5t19 37.5q60 89 127 89q40 0 78.5 -20t70 -40t56.5 -20q33 0 80 47q23 25 28.5 24t22.5 -30l4 -7q17 -28 17 -35.5t-17 -35.5q-57 -101 -139 -101 q-44 0 -83 20t-69.5 40t-52.5 20z" />
<glyph unicode="&#xf6;" d="M842 403q0 -186 -108 -303.5t-288 -117.5q-179 0 -286 117.5t-107 303.5q0 185 107.5 302.5t285.5 117.5q179 0 287.5 -117.5t108.5 -302.5zM283 403q0 -282 163 -282q50 0 83.5 23.5t50 66.5t22.5 88t6 104q0 60 -6 104.5t-22 87.5t-49.5 66t-84.5 23q-40 0 -70 -16 t-47.5 -41.5t-28 -64t-14 -75.5t-3.5 -84zM399 1036q0 -46 -34.5 -79t-81.5 -33q-50 0 -84.5 33t-34.5 79q0 48 34 81.5t85 33.5q47 0 81.5 -34t34.5 -81zM727 1036q0 -46 -35 -79t-82 -33q-50 0 -84 33t-34 79q0 48 34 81.5t84 33.5q47 0 82 -34t35 -81z" />
<glyph unicode="&#xf7;" horiz-adv-x="819" d="M516 158q0 -46 -35 -79.5t-82 -33.5q-50 0 -84 33.5t-34 79.5q0 48 33.5 81t84.5 33q48 0 82.5 -33.5t34.5 -80.5zM516 666q0 -46 -35 -79.5t-82 -33.5q-50 0 -84 33.5t-34 79.5q0 48 33.5 81t84.5 33q48 0 82.5 -33.5t34.5 -80.5zM705 334h-594q-40 0 -46 6t-6 45v53 q0 39 6 45t46 6h594q40 0 45.5 -5.5t5.5 -45.5v-53q0 -40 -5.5 -45.5t-45.5 -5.5z" />
<glyph unicode="&#xf8;" d="M231 -322h-104q-39 0 -43 6t8 44l105 284q10 29 8 37t-25 31q-127 118 -127 323q0 185 107.5 302.5t285.5 117.5h25q17 -1 20 1t9 18l100 276q12 38 20 43.5t48 5.5h102q40 0 43.5 -5.5t-8.5 -43.5l-117 -319q-10 -29 -8 -36.5t27 -29.5q64 -58 99.5 -143.5t35.5 -186.5 q0 -186 -108 -303.5t-288 -117.5h-28q-20 1 -23.5 -1t-9.5 -20l-86 -233q-12 -38 -20 -44t-48 -6zM573 514l-143 -387q-2 -5 -1 -5.5t7 -0.5h10q50 0 83.5 23.5t50 66.5t22.5 88t6 104q0 62 -8 109q-7 32 -11 32.5t-16 -30.5zM283 403q0 -55 8 -96q5 -33 7.5 -33.5 t14.5 31.5l125 344q11 31 7.5 34.5t-35.5 -3.5q-127 -30 -127 -277z" />
<glyph unicode="&#xf9;" horiz-adv-x="931" d="M557 29q-133 -52 -231 -52q-103 0 -167.5 75t-64.5 222v474q0 40 5.5 46t45.5 7l117 6q40 2 45.5 -3.5t5.5 -45.5v-473q0 -92 29.5 -126t95.5 -34q45 0 103 14q31 9 35 14.5t4 36.5v568q0 40 5.5 45.5t45.5 5.5h117q40 0 45.5 -5.5t5.5 -45.5v-707q0 -40 -5.5 -46.5 t-45.5 -10.5l-52 -8q-32 -5 -40.5 -2t-30.5 28l-2 2q-22 25 -29.5 26.5t-36.5 -11.5zM500 907h-49q-38 0 -48 5.5t-30 37.5l-90 148q-20 32 -17 37.5t41 5.5h105q40 0 48 -5t21 -42l51 -140q14 -37 10.5 -42t-42.5 -5z" />
<glyph unicode="&#xfa;" horiz-adv-x="931" d="M557 29q-133 -52 -231 -52q-103 0 -167.5 75t-64.5 222v474q0 40 5.5 46t45.5 7l117 6q40 2 45.5 -3.5t5.5 -45.5v-473q0 -92 29.5 -126t95.5 -34q45 0 103 14q31 9 35 14.5t4 36.5v568q0 40 5.5 45.5t45.5 5.5h117q40 0 45.5 -5.5t5.5 -45.5v-707q0 -40 -5.5 -46.5 t-45.5 -10.5l-52 -8q-32 -5 -40.5 -2t-30.5 28l-2 2q-22 25 -29.5 26.5t-36.5 -11.5zM479 907h-49q-40 0 -43.5 5t10.5 42l52 140q13 37 21 42t48 5h105q38 0 41 -5.5t-17 -37.5l-90 -148q-20 -32 -30 -37.5t-48 -5.5z" />
<glyph unicode="&#xfb;" horiz-adv-x="931" d="M557 29q-133 -52 -231 -52q-103 0 -167.5 75t-64.5 222v474q0 40 5.5 46t45.5 7l117 6q40 2 45.5 -3.5t5.5 -45.5v-473q0 -92 29.5 -126t95.5 -34q45 0 103 14q31 9 35 14.5t4 36.5v568q0 40 5.5 45.5t45.5 5.5h117q40 0 45.5 -5.5t5.5 -45.5v-707q0 -40 -5.5 -46.5 t-45.5 -10.5l-52 -8q-32 -5 -40.5 -2t-30.5 28l-2 2q-22 25 -29.5 26.5t-36.5 -11.5zM301 911h-86h-22t-12 1.5t-6.5 3t2.5 7t7 10t15 15.5l123 135q26 27 37.5 32t48.5 5h75q37 0 48.5 -5t37.5 -32l123 -135q11 -11 15 -15.5t7 -10t2.5 -7t-6.5 -3t-12 -1.5h-22h-84 q-38 0 -48.5 5t-35.5 34l-35 43q-20 25 -26.5 25t-26.5 -25l-35 -43q-25 -29 -35.5 -34t-48.5 -5z" />
<glyph unicode="&#xfc;" horiz-adv-x="931" d="M557 29q-133 -52 -231 -52q-103 0 -167.5 75t-64.5 222v474q0 40 5.5 46t45.5 7l117 6q40 2 45.5 -3.5t5.5 -45.5v-473q0 -92 29.5 -126t95.5 -34q45 0 103 14q31 9 35 14.5t4 36.5v568q0 40 5.5 45.5t45.5 5.5h117q40 0 45.5 -5.5t5.5 -45.5v-707q0 -40 -5.5 -46.5 t-45.5 -10.5l-52 -8q-32 -5 -40.5 -2t-30.5 28l-2 2q-22 25 -29.5 26.5t-36.5 -11.5zM408 1036q0 -46 -35 -79t-82 -33q-50 0 -84.5 33t-34.5 79q0 48 34 81.5t85 33.5q47 0 82 -34t35 -81zM735 1036q0 -46 -35 -79t-82 -33q-50 0 -84 33t-34 79q0 48 34 81.5t84 33.5 q47 0 82 -34t35 -81z" />
<glyph unicode="&#xfd;" horiz-adv-x="860" d="M322 -377l-107 6q-40 1 -43.5 6.5t10.5 42.5l140 371q3 9 3 12t-2.5 4t-11.5 1h-4q-13 0 -16 2t-8 14l-279 680q-14 37 -10.5 42t43.5 5h115q40 0 48 -5t21 -42l166 -412q7 -21 11 -26t8 0t10 26l151 412q13 36 21.5 41.5t48.5 5.5h119q39 0 42.5 -5t-10.5 -42 l-397 -1094q-13 -37 -21 -42t-48 -3zM418 907h-49q-40 0 -43.5 5t10.5 42l51 140q13 36 21.5 41.5t48.5 5.5h104q39 0 42 -5.5t-17 -37.5l-90 -148q-20 -32 -30 -37.5t-48 -5.5z" />
<glyph unicode="&#xfe;" horiz-adv-x="931" d="M276 -373h-114q-40 0 -45.5 5.5t-5.5 45.5v1377q0 40 5.5 45.5t45.5 5.5h82q40 0 46 -5.5t9 -45.5l18 -299q1 -32 5.5 -34.5t33.5 9.5q98 43 193 43q42 0 81 -7t82.5 -28t74.5 -54t52 -91.5t21 -134.5q0 -81 -29.5 -148t-74 -113t-113.5 -85t-131.5 -62.5t-144.5 -46.5 q-31 -7 -35 -13t-4 -38v-275q0 -39 -6 -45t-46 -6zM324 549v-361q0 -32 3.5 -34.5t34.5 8.5q37 14 65.5 27t68.5 38t66.5 52t45.5 67.5t19 85.5q0 189 -160 189q-41 0 -105 -19q-30 -9 -34 -14.5t-4 -38.5z" />
<glyph unicode="&#xff;" horiz-adv-x="860" d="M322 -377l-107 6q-40 1 -43.5 6.5t10.5 42.5l140 371q3 9 3 12t-2.5 4t-11.5 1h-4q-13 0 -16 2t-8 14l-279 680q-14 37 -10.5 42t43.5 5h115q40 0 48 -5t21 -42l166 -412q7 -21 11 -26t8 0t10 26l151 412q13 36 21.5 41.5t48.5 5.5h119q39 0 42.5 -5t-10.5 -42 l-397 -1094q-13 -37 -21 -42t-48 -3zM362 1036q0 -45 -35 -78.5t-81 -33.5q-50 0 -84.5 33t-34.5 79q0 48 34 81.5t85 33.5q46 0 81 -34t35 -81zM690 1036q0 -45 -35.5 -78.5t-81.5 -33.5q-50 0 -84 33t-34 79q0 48 34 81.5t84 33.5q46 0 81.5 -34t35.5 -81z" />
<glyph unicode="&#x152;" horiz-adv-x="1599" d="M805 37q-99 -55 -223 -55q-242 0 -375 158t-133 415q0 255 133.5 412t374.5 157q127 0 223 -55q13 -8 15.5 -6.5t2.5 18.5l-2 2q0 17 3 20t20 3h596q40 0 45.5 -5.5t5.5 -45.5v-68q0 -40 -5.5 -45.5t-45.5 -5.5h-353q-32 0 -36 -4t-4 -37v-190q0 -33 4 -37t36 -4h310 q39 0 45 -6t6 -46v-71q0 -40 -6 -46t-45 -6h-310q-32 0 -36 -4t-4 -36v-234q0 -33 4 -37t36 -4h361q40 0 45.5 -5.5t5.5 -45.5v-72q0 -40 -5.5 -45.5t-45.5 -5.5h-604q-17 0 -20 3t-3 20l2 4v13.5t-2.5 4.5t-5 -0.5t-10.5 -7.5zM328 557q0 -82 12.5 -149.5t40.5 -125 t79.5 -90t123.5 -32.5q70 0 121.5 32.5t79.5 90t40.5 125t12.5 149.5q0 80 -13 147t-41 124t-79 89.5t-121 32.5q-71 0 -122.5 -32.5t-79.5 -89.5t-41 -124t-13 -147z" />
<glyph unicode="&#x153;" horiz-adv-x="1378" d="M1212 27q-115 -47 -258 -47q-129 0 -223 81q-23 20 -29.5 20t-29.5 -20q-92 -79 -232 -79q-179 0 -286 117.5t-107 303.5q0 185 107.5 302.5t285.5 117.5q136 0 232 -80q25 -20 30.5 -20t28.5 20q89 80 221 80q163 0 253.5 -93.5t90.5 -274.5q0 -26 -6 -47 q-6 -31 -11.5 -35t-37.5 -4h-387q-32 0 -36 -4.5t-1 -36.5q14 -193 189 -193q78 0 186 23q38 9 44 4.5t11 -43.5l4 -23q4 -40 0 -47t-39 -22zM276 403q0 -58 6.5 -103.5t23 -88.5t50.5 -66.5t84 -23.5q47 0 80 21.5t50.5 62.5t24.5 88.5t7 109.5q0 61 -6.5 107t-23.5 87.5 t-50 64t-82 22.5q-51 0 -85 -23t-50.5 -66t-22.5 -87.5t-6 -104.5zM958 690q-28 0 -47.5 -5.5t-41 -22t-33.5 -55t-15 -97.5q-3 -32 1.5 -36.5t35.5 -2.5l176 8q32 1 36 6t1 37q-11 168 -113 168z" />
<glyph unicode="&#x178;" horiz-adv-x="1087" d="M635 0h-133q-40 0 -45.5 5.5t-5.5 45.5v301q0 39 -19 78l-321 631q-17 35 -14.5 40t42.5 5h148q40 0 48 -5t23 -42l193 -426q3 -8 5 -9t11 -1h4q7 0 9 0.5t4 2.5t4 7l194 426q15 36 23.5 41.5t48.5 5.5h145q40 0 43 -5t-14 -40l-323 -631q-19 -39 -19 -78v-301 q0 -40 -5.5 -45.5t-45.5 -5.5zM520 1333q0 -46 -35 -79t-82 -33q-50 0 -84 33t-34 79q0 48 34 81.5t84 33.5q47 0 82 -34t35 -81zM848 1333q0 -46 -35 -79t-82 -33q-50 0 -84.5 33t-34.5 79q0 48 34 81.5t85 33.5q47 0 82 -34t35 -81z" />
<glyph unicode="&#x2c6;" horiz-adv-x="884" d="M291 911h-86q-39 0 -41 4.5t24 32.5l123 135q26 27 37.5 32t48.5 5h76q37 0 48.5 -5t37.5 -32l123 -135q11 -11 15 -15.5t7 -10t2.5 -7t-6.5 -3t-12 -1.5h-22h-84q-38 0 -48.5 5t-35.5 34l-35 43q-20 25 -26.5 25t-26.5 -25l-35 -43q-25 -29 -35.5 -34t-48.5 -5z" />
<glyph unicode="&#x2dc;" horiz-adv-x="884" d="M346 995q-30 0 -67 -41q-25 -25 -31 -24.5t-23 31.5l-4 8q-17 29 -17 37.5t19 37.5q60 89 127 89q40 0 78.5 -20t70 -40t56.5 -20q33 0 80 47q23 25 28.5 24t22.5 -30l4 -7q17 -28 17 -35.5t-17 -35.5q-57 -101 -139 -101q-44 0 -83 20t-69.5 40t-52.5 20z" />
<glyph unicode="&#x2000;" horiz-adv-x="742" />
<glyph unicode="&#x2001;" horiz-adv-x="1485" />
<glyph unicode="&#x2002;" horiz-adv-x="742" />
<glyph unicode="&#x2003;" horiz-adv-x="1485" />
<glyph unicode="&#x2004;" horiz-adv-x="495" />
<glyph unicode="&#x2005;" horiz-adv-x="371" />
<glyph unicode="&#x2006;" horiz-adv-x="247" />
<glyph unicode="&#x2007;" horiz-adv-x="247" />
<glyph unicode="&#x2008;" horiz-adv-x="185" />
<glyph unicode="&#x2009;" horiz-adv-x="297" />
<glyph unicode="&#x200a;" horiz-adv-x="82" />
<glyph unicode="&#x2010;" horiz-adv-x="624" d="M455 338h-277q-40 0 -45.5 5.5t-5.5 45.5v62q0 40 5.5 45.5t45.5 5.5h277q40 0 45.5 -5.5t5.5 -45.5v-62q0 -40 -5.5 -45.5t-45.5 -5.5z" />
<glyph unicode="&#x2011;" horiz-adv-x="624" d="M455 338h-277q-40 0 -45.5 5.5t-5.5 45.5v62q0 40 5.5 45.5t45.5 5.5h277q40 0 45.5 -5.5t5.5 -45.5v-62q0 -40 -5.5 -45.5t-45.5 -5.5z" />
<glyph unicode="&#x2012;" horiz-adv-x="624" d="M455 338h-277q-40 0 -45.5 5.5t-5.5 45.5v62q0 40 5.5 45.5t45.5 5.5h277q40 0 45.5 -5.5t5.5 -45.5v-62q0 -40 -5.5 -45.5t-45.5 -5.5z" />
<glyph unicode="&#x2013;" horiz-adv-x="933" d="M760 322h-608q-40 0 -46 6t-6 45v69q0 40 6 46t46 6h608q39 0 45 -6t6 -46v-69q0 -40 -5.5 -45.5t-45.5 -5.5z" />
<glyph unicode="&#x2014;" horiz-adv-x="1320" d="M1149 322h-995q-40 0 -46 6t-6 45v69q0 40 6 46t46 6h995q39 0 45 -6t6 -46v-69q0 -40 -5.5 -45.5t-45.5 -5.5z" />
<glyph unicode="&#x2018;" horiz-adv-x="442" d="M334 870q0 -46 -33 -79t-80 -33q-62 0 -93.5 42t-31.5 107q0 94 56 172t151 86q19 3 22 1t3 -21v-2q0 -19 -3 -22.5t-20 -6.5q-39 -8 -64.5 -41t-25.5 -65q0 -15 18.5 -26.5t41 -19.5t41 -31.5t18.5 -60.5z" />
<glyph unicode="&#x2019;" horiz-adv-x="317" d="M303 1022q0 -59 -23.5 -115t-72.5 -96.5t-113 -46.5q-17 -3 -19.5 -1t-2.5 21v2q0 19 2.5 22.5t19.5 6.5q39 8 63.5 41.5t24.5 65.5q0 15 -18.5 26t-41 19t-41 31.5t-18.5 60.5q0 46 33.5 79t79.5 33q63 0 95 -41.5t32 -107.5z" />
<glyph unicode="&#x201a;" horiz-adv-x="317" d="M301 78q0 -60 -22 -121.5t-71.5 -109t-115.5 -48.5q-19 -1 -21.5 1.5t-2.5 21.5v2q0 19 3 22.5t21 6.5q55 8 81 65q21 46 4 71q-7 11 -21 11q-36 0 -65.5 34.5t-29.5 74.5q0 46 33.5 79t79.5 33q57 0 92 -38t35 -105z" />
<glyph unicode="&#x201c;" horiz-adv-x="712" d="M334 870q0 -46 -33 -79t-80 -33q-62 0 -93.5 42t-31.5 107q0 94 56 172t151 86q19 3 22 1t3 -21v-2q0 -19 -3 -22.5t-20 -6.5q-39 -8 -64.5 -41t-25.5 -65q0 -15 18.5 -26.5t41 -19.5t41 -31.5t18.5 -60.5zM610 870q0 -46 -33 -79t-79 -33q-63 0 -95 41.5t-32 107.5 q0 59 23.5 115t72.5 96.5t113 46.5q17 3 19.5 1t2.5 -21v-2q0 -19 -2.5 -22.5t-19.5 -6.5q-39 -8 -63.5 -41t-24.5 -65q0 -15 18.5 -26.5t40.5 -19.5t40.5 -31.5t18.5 -60.5z" />
<glyph unicode="&#x201d;" horiz-adv-x="692" d="M336 1022q0 -59 -23.5 -115t-72.5 -96.5t-113 -46.5q-11 -4 -16 -2.5t-6 5t-1 17.5v2q0 19 3 22.5t20 6.5q39 8 63.5 41.5t24.5 65.5q0 15 -18.5 26t-41 19t-41 31.5t-18.5 60.5q0 46 33.5 79t79.5 33q63 0 95 -41.5t32 -107.5zM612 1022q0 -59 -23.5 -115t-72.5 -96.5 t-113 -46.5q-17 -3 -19.5 -1t-2.5 21v2q0 19 2.5 22.5t19.5 6.5q39 8 64 41.5t25 65.5q0 15 -18.5 26t-41 19t-41 31.5t-18.5 60.5q0 46 33 79t79 33q63 0 95 -41.5t32 -107.5z" />
<glyph unicode="&#x201e;" horiz-adv-x="712" d="M348 78q0 -60 -22 -121.5t-71.5 -109t-115.5 -48.5q-19 -1 -21.5 1.5t-2.5 21.5v2q0 19 3 22.5t21 6.5q55 8 81 65q21 46 4 71q-7 11 -21 11q-36 0 -65 34.5t-29 74.5q0 46 33 79t79 33q57 0 92 -38t35 -105zM629 78q0 -60 -22.5 -121.5t-72.5 -109t-116 -48.5 q-19 -1 -22 1.5t-3 21.5v2q0 19 3 22.5t22 6.5q54 8 81 64q21 45 5 71q-8 12 -23 12q-35 0 -63.5 34.5t-28.5 74.5q0 46 33 79t80 33q57 0 92 -38t35 -105z" />
<glyph unicode="&#x2022;" horiz-adv-x="837" d="M580 383q0 -66 -50 -115t-118 -49q-73 0 -122.5 48.5t-49.5 115.5q0 68 49.5 115t122.5 47q68 0 118 -47.5t50 -114.5z" />
<glyph unicode="&#x2026;" horiz-adv-x="1468" d="M389 104q0 -47 -34.5 -80.5t-82.5 -33.5q-51 0 -84.5 33t-33.5 81t34 81.5t84 33.5q47 0 82 -34t35 -81zM854 104q0 -47 -35.5 -80.5t-81.5 -33.5q-51 0 -85 33t-34 81t34 81.5t85 33.5q46 0 81.5 -34t35.5 -81zM1315 104q0 -47 -34.5 -80.5t-82.5 -33.5q-51 0 -85 33 t-34 81t34 81.5t85 33.5q47 0 82 -34t35 -81z" />
<glyph unicode="&#x202f;" horiz-adv-x="297" />
<glyph unicode="&#x2039;" horiz-adv-x="614" d="M471 29h-4q-17 0 -22 2t-17 12l-324 313q-29 28 -29 36t29 36l330 307q11 9 15.5 11t19.5 2h4q13 0 16 -3t3 -16v-55q0 -36 -5 -49t-28 -41l-127 -156q-20 -25 -20.5 -31.5t18.5 -31.5l131 -170q22 -29 26.5 -43.5t4.5 -49.5v-51q0 -17 -2.5 -19.5t-18.5 -2.5z" />
<glyph unicode="&#x203a;" horiz-adv-x="614" d="M147 29h-4q-17 0 -19.5 2.5t-2.5 19.5v51q0 35 4.5 49.5t26.5 43.5l131 170q19 25 18.5 31.5t-20.5 31.5l-127 156q-23 28 -28 41t-5 49v55q0 14 2.5 16.5t17.5 2.5h4q13 0 17.5 -2t15.5 -11l330 -307q29 -28 29 -36t-29 -36l-324 -313q-12 -10 -17 -12t-20 -2z" />
<glyph unicode="&#x205f;" horiz-adv-x="371" />
<glyph unicode="&#x20ac;" horiz-adv-x="1224" d="M934 47q-147 -65 -318 -65q-64 0 -124 19t-116 58.5t-100 109.5t-67 163q-7 32 -13 36.5t-38 4.5h-33q-40 0 -45.5 5.5t-5.5 45.5v29q0 40 5.5 45.5t45.5 5.5h22q32 0 36.5 4.5t4.5 36.5v10q0 32 -4.5 36.5t-36.5 4.5h-22q-40 0 -45.5 5.5t-5.5 45.5v29q0 40 5.5 45.5 t45.5 5.5h43q32 0 38.5 4t16.5 35q53 165 179.5 258.5t299.5 93.5q101 0 199 -24q38 -10 42.5 -18t-3.5 -46l-8 -47q-7 -39 -14.5 -44t-47.5 1q-78 12 -151 12q-200 0 -260 -186q-9 -31 -6.5 -35t34.5 -4h271q40 0 45.5 -5.5t5.5 -45.5v-29q0 -40 -5.5 -45.5t-45.5 -5.5 h-285q-32 0 -36.5 -4.5t-4.5 -36.5v-10q0 -32 4.5 -36.5t36.5 -4.5h285q40 0 45.5 -5.5t5.5 -45.5v-29q0 -40 -5.5 -45.5t-45.5 -5.5h-273q-32 0 -35 -4t5 -35q28 -98 91 -140t169 -42q86 0 192 36q38 12 45.5 8t14.5 -42l6 -39q6 -38 1.5 -46.5t-40.5 -21.5z" />
<glyph unicode="&#x2122;" horiz-adv-x="1380" d="M684 530h-37q-39 0 -45 6t-6 46l10 471q0 40 5.5 45.5t45.5 5.5h119q40 0 47.5 -5.5t16.5 -43.5l80 -328q6 -28 9 -28t9 28l80 328q9 38 16 43.5t47 5.5h117q40 0 45.5 -5.5t5.5 -45.5l11 -471q0 -40 -6 -46t-46 -6h-34q-40 0 -46.5 6t-7.5 46l-6 305q0 29 -2 29.5 t-10 -27.5l-80 -299q-10 -38 -18 -43.5t-48 -5.5h-57q-40 0 -47.5 5.5t-17.5 43.5l-82 299q-8 28 -10.5 27.5t-2.5 -29.5l-4 -305q0 -40 -6 -46t-45 -6zM315 530h-39q-39 0 -45 6t-6 46v370q0 32 -4.5 36.5t-36.5 4.5h-49q-40 0 -45.5 5.5t-5.5 45.5v9q0 40 5.5 45.5 t45.5 5.5h330q40 0 45.5 -5.5t5.5 -45.5v-9q0 -40 -5.5 -45.5t-45.5 -5.5h-57q-32 0 -36.5 -4.5t-4.5 -36.5v-370q0 -40 -6 -46t-46 -6z" />
<glyph unicode="&#x25fc;" horiz-adv-x="808" d="M0 809h809v-809h-809v809z" />
</font>
</defs>
</svg>
